<?xml version="1.0" encoding="UTF-8"?>
<svg id="Calque_1" data-name="Calque 1" xmlns="http://www.w3.org/2000/svg" viewBox="0 0 2007.18 1370.6">
  <defs>
    <style>
      .cls-1 {
        fill: #fff;
      }

      .cls-2 {
        fill: #ffd509;
      }

      .cls-3 {
        fill: #cf1317;
      }

      .cls-4 {
        fill: #1c1c1c;
      }

      .cls-5 {
        fill: #1a3761;
      }

      .cls-6 {
        fill: #715340;
      }

      .cls-7 {
        opacity: .2;
      }
    </style>
  </defs>
  <g>
    <g>
      <circle class="cls-2" cx="943.97" cy="362.85" r="33.5"/>
      <g>
        <path class="cls-6" d="M964.78,367.42c.64,.17,1.03,.84,.83,1.47-2.22,6.89-7.54,12.05-13.98,14.33-4.11,1.43-8.68,1.71-13.18,.52-4.5-1.19-8.34-3.68-11.19-6.96-4.5-5.14-6.58-12.24-5.1-19.34,.13-.65,.81-1.04,1.44-.87l41.18,10.86Z"/>
        <g>
          <path class="cls-4" d="M936.34,342.88c1.12-1.84,4.02-1.08,4.09,1.08,0,.01,0,.03,0,.04,.02,1.48-.16,2.9-.52,4.28-.36,1.38-.9,2.71-1.65,3.98-.01,.02-.02,.04-.03,.06-1.12,1.84-4.03,1.08-4.1-1.08,0-.02,0-.04,0-.07-.02-1.48,.16-2.9,.53-4.28,.37-1.38,.91-2.7,1.66-3.98,0-.01,.02-.03,.02-.04Z"/>
          <path class="cls-4" d="M956.34,348.15c1.12-1.84,4.02-1.08,4.09,1.08,0,.01,0,.03,0,.04,.02,1.48-.16,2.9-.52,4.28-.36,1.38-.9,2.71-1.65,3.98-.01,.02-.02,.04-.03,.06-1.12,1.84-4.03,1.08-4.1-1.08,0-.02,0-.04,0-.07-.02-1.48,.16-2.9,.53-4.28,.37-1.38,.91-2.7,1.66-3.98,0-.01,.02-.03,.02-.04Z"/>
        </g>
        <path class="cls-3" d="M951.63,383.22s0,0,0,0c-4.11,1.43-8.68,1.71-13.18,.52-4.5-1.19-8.34-3.68-11.19-6.96,2.55-3.72,8.24-5.45,14.06-3.92,5.83,1.54,9.94,5.85,10.31,10.36Z"/>
      </g>
    </g>
    <g class="cls-7">
      <path class="cls-1" d="M915.62,358c1.07-17.53,22.3-29.93,38.08-22.19-4.15-.25-8.12-.04-11.93,.76-11.72,2.39-21.12,10.62-26.15,21.43h0Z"/>
    </g>
  </g>
  <g>
    <g>
      <circle class="cls-2" cx="1439.29" cy="644.22" r="55.95"/>
      <g>
        <path class="cls-6" d="M1474.06,651.86c1.06,.28,1.72,1.4,1.38,2.45-3.7,11.51-12.6,20.13-23.35,23.93-6.86,2.38-14.49,2.85-22.02,.87-7.52-1.98-13.93-6.15-18.69-11.63-7.52-8.59-10.99-20.44-8.52-32.3,.22-1.08,1.35-1.73,2.41-1.45l68.78,18.13Z"/>
        <g>
          <path class="cls-4" d="M1426.55,610.85c1.88-3.08,6.72-1.8,6.84,1.8,0,.02,0,.05,0,.07,.04,2.47-.27,4.85-.87,7.15-.6,2.3-1.51,4.52-2.76,6.65-.02,.03-.04,.06-.06,.1-1.88,3.08-6.73,1.8-6.84-1.8,0-.04,0-.07,0-.11-.04-2.47,.27-4.85,.88-7.14,.61-2.3,1.52-4.52,2.77-6.65,.01-.02,.03-.04,.04-.06Z"/>
          <path class="cls-4" d="M1459.97,619.66c1.88-3.08,6.72-1.8,6.84,1.8,0,.02,0,.05,0,.07,.04,2.47-.27,4.85-.87,7.15-.6,2.3-1.51,4.52-2.76,6.65-.02,.03-.04,.06-.06,.1-1.88,3.08-6.73,1.8-6.84-1.8,0-.04,0-.07,0-.11-.04-2.47,.27-4.85,.88-7.14,.61-2.3,1.52-4.52,2.77-6.65,.01-.02,.03-.04,.04-.06Z"/>
        </g>
        <path class="cls-3" d="M1452.09,678.24s0,0,0,0c-6.86,2.38-14.49,2.85-22.02,.87-7.52-1.98-13.93-6.15-18.69-11.63,4.25-6.22,13.76-9.11,23.48-6.55,9.75,2.57,16.6,9.77,17.22,17.31Z"/>
      </g>
    </g>
    <g class="cls-7">
      <path class="cls-1" d="M1391.93,636.12c1.78-29.29,37.25-49.99,63.61-37.07-6.93-.41-13.56-.07-19.93,1.27-19.57,3.99-35.28,17.74-43.69,35.8h0Z"/>
    </g>
  </g>
  <g>
    <g>
      <circle class="cls-2" cx="609.01" cy="844.19" r="55.95"/>
      <g>
        <path class="cls-6" d="M643.78,851.82c1.06,.28,1.72,1.4,1.38,2.45-3.7,11.51-12.6,20.13-23.35,23.93-6.86,2.38-14.49,2.85-22.02,.87-7.52-1.98-13.93-6.15-18.69-11.63-7.52-8.59-10.99-20.44-8.52-32.3,.22-1.08,1.35-1.73,2.41-1.45l68.78,18.13Z"/>
        <g>
          <path class="cls-4" d="M596.27,810.82c1.88-3.08,6.72-1.8,6.84,1.8,0,.02,0,.05,0,.07,.04,2.47-.27,4.85-.87,7.15-.6,2.3-1.51,4.52-2.76,6.65-.02,.03-.04,.06-.06,.1-1.88,3.08-6.73,1.8-6.84-1.8,0-.04,0-.07,0-.11-.04-2.47,.27-4.85,.88-7.14,.61-2.3,1.52-4.52,2.77-6.65,.01-.02,.03-.04,.04-.06Z"/>
          <path class="cls-4" d="M629.68,819.63c1.88-3.08,6.72-1.8,6.84,1.8,0,.02,0,.05,0,.07,.04,2.47-.27,4.85-.87,7.15-.6,2.3-1.51,4.52-2.76,6.65-.02,.03-.04,.06-.06,.1-1.88,3.08-6.73,1.8-6.84-1.8,0-.04,0-.07,0-.11-.04-2.47,.27-4.85,.88-7.14,.61-2.3,1.52-4.52,2.77-6.65,.01-.02,.03-.04,.04-.06Z"/>
        </g>
        <path class="cls-3" d="M621.81,878.21s0,0,0,0c-6.86,2.38-14.49,2.85-22.02,.87-7.52-1.98-13.93-6.15-18.69-11.63,4.25-6.22,13.76-9.11,23.48-6.55,9.75,2.57,16.6,9.77,17.22,17.31Z"/>
      </g>
    </g>
    <g class="cls-7">
      <path class="cls-1" d="M561.65,836.08c1.78-29.29,37.25-49.99,63.61-37.07-6.93-.41-13.56-.07-19.93,1.27-19.57,3.99-35.28,17.74-43.69,35.8h0Z"/>
    </g>
  </g>
  <g>
    <circle class="cls-3" cx="816.93" cy="988.13" r="44.98"/>
    <g class="cls-7">
      <path class="cls-1" d="M789.9,961.1c11.96-17.93,42.12-17.95,54.07,0-4.24-2.82-8.58-5.06-13.11-6.56-13.9-4.7-28.94-1.79-40.95,6.56h0Z"/>
    </g>
    <path class="cls-1" d="M837.19,1002.64s.06-.05,.08-.08c5.19-5.19,6.19-13.71,.55-19.36-4.49-4.49-10.32-3.87-14.22-1.73h0c2.13-3.91,2.75-9.74-1.73-14.22-5.65-5.65-14.16-4.65-19.36,.55-.03,.03-.05,.06-.08,.08-1.16,1.1-12.63,12.63-4.63,39.38h0s0,0,0,0c0,0,0,0,0,0,0,0,0,0,0,0,0,0,0,0,0,0h0c26.75,8,38.28-3.47,39.38-4.63Z"/>
  </g>
  <g>
    <circle class="cls-3" cx="496.53" cy="779.66" r="32.48"/>
    <g class="cls-7">
      <path class="cls-1" d="M469.19,783.51c-5.14-14.69,7.94-32.09,23.49-31.19-3.47,1.22-6.65,2.75-9.48,4.72-8.75,5.97-13.6,15.92-14.01,26.48h0Z"/>
    </g>
    <path class="cls-1" d="M513.7,774.27s0-.06,0-.08c-.74-5.25-5.22-9.53-10.93-8.72-4.54,.64-6.71,4.27-7.18,7.45h0c-1.33-2.93-4.42-5.82-8.96-5.18-5.71,.8-8.83,6.15-8.09,11.4,0,.03,0,.06,.01,.08,.13,1.15,1.8,12.77,20.71,19.77h0s0,0,0,0c0,0,0,0,0,0,0,0,0,0,0,0,0,0,0,0,0,0h0c16.24-11.96,14.63-23.59,14.44-24.73Z"/>
  </g>
  <g>
    <circle class="cls-3" cx="522.71" cy="501.78" r="32.48"/>
    <g class="cls-7">
      <path class="cls-1" d="M495.37,505.63c-5.14-14.69,7.94-32.09,23.49-31.19-3.47,1.22-6.65,2.75-9.48,4.72-8.75,5.97-13.6,15.92-14.01,26.48h0Z"/>
    </g>
    <path class="cls-1" d="M539.88,496.4s0-.06,0-.08c-.74-5.25-5.22-9.53-10.93-8.72-4.54,.64-6.71,4.27-7.18,7.45h0c-1.33-2.93-4.42-5.82-8.96-5.18-5.71,.8-8.83,6.15-8.09,11.4,0,.03,0,.06,.01,.08,.13,1.15,1.8,12.77,20.71,19.77h0s0,0,0,0c0,0,0,0,0,0,0,0,0,0,0,0,0,0,0,0,0,0h0c16.24-11.96,14.63-23.59,14.44-24.73Z"/>
  </g>
  <g>
    <circle class="cls-3" cx="1079.9" cy="360.73" r="20.32"/>
    <g class="cls-7">
      <path class="cls-1" d="M1063.58,355.1c1.31-9.64,13.55-15.62,21.95-10.7-2.28-.31-4.48-.36-6.62-.07-6.57,.84-12.1,5-15.33,10.77h0Z"/>
    </g>
    <path class="cls-1" d="M1091,362.61s.01-.03,.02-.05c1.08-3.14-.2-6.79-3.61-7.97-2.71-.93-4.95,.47-6.12,2.11h0c.09-2.01-.81-4.5-3.52-5.43-3.41-1.18-6.67,.91-7.75,4.05,0,.02-.01,.03-.02,.05-.25,.68-2.63,7.63,5.91,16.9h0s0,0,0,0c0,0,0,0,0,0,0,0,0,0,0,0,0,0,0,0,0,0h0c12.45-2.04,14.86-8.98,15.07-9.67Z"/>
  </g>
  <g>
    <circle class="cls-3" cx="1349.13" cy="483.1" r="32.48"/>
    <g class="cls-7">
      <path class="cls-1" d="M1321.79,486.95c-5.14-14.69,7.94-32.09,23.49-31.19-3.47,1.22-6.65,2.75-9.48,4.72-8.75,5.97-13.6,15.92-14.01,26.48h0Z"/>
    </g>
    <path class="cls-1" d="M1366.3,477.72s0-.06,0-.08c-.74-5.25-5.22-9.53-10.93-8.72-4.54,.64-6.71,4.27-7.18,7.45h0c-1.33-2.93-4.42-5.82-8.96-5.18-5.71,.8-8.83,6.15-8.09,11.4,0,.03,0,.06,.01,.08,.13,1.15,1.8,12.77,20.71,19.77h0s0,0,0,0c0,0,0,0,0,0,0,0,0,0,0,0,0,0,0,0,0,0h0c16.24-11.96,14.63-23.59,14.44-24.73Z"/>
  </g>
  <g>
    <circle class="cls-2" cx="946.47" cy="1010.07" r="26.47"/>
    <path class="cls-6" d="M958.15,1014.16c.32-.06,.65,.15,.69,.48,.51,3.59-.75,7.08-3.15,9.51-1.54,1.54-3.53,2.67-5.82,3.12s-4.56,.17-6.56-.68c-3.15-1.33-5.64-4.07-6.54-7.58-.08-.32,.14-.64,.46-.71l20.91-4.14Z"/>
    <path class="cls-3" d="M955.69,1024.15s0,0,0,0c-1.54,1.54-3.53,2.67-5.82,3.12s-4.56,.17-6.56-.68c.33-2.23,2.51-4.26,5.47-4.85,2.96-.59,5.75,.45,6.91,2.4Z"/>
    <g class="cls-7">
      <path class="cls-1" d="M924.65,1016.43c-5.31-12.83,5.49-28.98,19.38-28.95-3.03,1.26-5.78,2.78-8.21,4.67-7.5,5.75-11.33,14.85-11.16,24.28h0Z"/>
    </g>
    <g>
      <path class="cls-3" d="M941.85,1001.94s0-.02,0-.04c-.45-2.29-2.53-4.06-5.02-3.57-1.98,.39-2.85,2.04-2.97,3.45h0c-.66-1.25-2.08-2.45-4.06-2.06-2.49,.49-3.73,2.92-3.28,5.21,0,.01,0,.02,0,.04,.09,.5,1.1,5.57,9.59,8.19h0s0,0,0,0c0,0,0,0,0,0,0,0,0,0,0,0,0,0,0,0,0,0h0c6.85-5.65,5.85-10.73,5.74-11.22Z"/>
      <path class="cls-3" d="M962.97,997.76s0-.02,0-.04c-.45-2.29-2.53-4.06-5.02-3.57-1.98,.39-2.85,2.04-2.97,3.45h0c-.66-1.25-2.08-2.45-4.06-2.06-2.49,.49-3.73,2.92-3.28,5.21,0,.01,0,.02,0,.04,.09,.5,1.1,5.57,9.59,8.19h0s0,0,0,0c0,0,0,0,0,0,0,0,0,0,0,0,0,0,0,0,0,0h0c6.85-5.65,5.85-10.73,5.74-11.22Z"/>
    </g>
  </g>
  <g>
    <circle class="cls-2" cx="490.22" cy="578.6" r="55.08"/>
    <path class="cls-6" d="M514.52,587.11c.67-.13,1.35,.32,1.44,1,1.07,7.46-1.56,14.72-6.55,19.79-3.2,3.21-7.35,5.55-12.1,6.5-4.76,.94-9.49,.35-13.65-1.42-6.56-2.76-11.74-8.46-13.6-15.78-.17-.67,.28-1.34,.96-1.47l43.5-8.62Z"/>
    <path class="cls-3" d="M509.41,607.9s0,0,0,0c-3.2,3.21-7.35,5.55-12.1,6.5-4.76,.94-9.49,.35-13.65-1.42,.69-4.65,5.23-8.86,11.37-10.08,6.16-1.22,11.97,.95,14.38,5Z"/>
    <g class="cls-7">
      <path class="cls-1" d="M444.82,591.84c-11.05-26.69,11.41-60.3,40.31-60.23-6.31,2.62-12.03,5.78-17.09,9.72-15.6,11.97-23.57,30.91-23.23,50.51h0Z"/>
    </g>
    <g>
      <path class="cls-3" d="M480.62,561.69s0-.05-.01-.08c-.94-4.77-5.26-8.45-10.44-7.42-4.12,.82-5.92,4.25-6.19,7.18h0c-1.36-2.61-4.34-5.1-8.46-4.28-5.18,1.03-7.77,6.07-6.82,10.84,0,.03,.01,.05,.02,.08,.18,1.04,2.29,11.59,19.94,17.03h0s0,0,0,0c0,0,0,0,0,0,0,0,0,0,0,0,0,0,0,0,0,0h0c14.24-11.76,12.18-22.32,11.95-23.35Z"/>
      <path class="cls-3" d="M524.56,552.99s0-.05-.01-.08c-.94-4.77-5.26-8.45-10.44-7.42-4.12,.82-5.92,4.25-6.19,7.18h0c-1.36-2.61-4.34-5.1-8.46-4.28-5.18,1.03-7.77,6.07-6.82,10.84,0,.03,.01,.05,.02,.08,.18,1.04,2.29,11.59,19.94,17.03h0s0,0,0,0c0,0,0,0,0,0,0,0,0,0,0,0,0,0,0,0,0,0h0c14.24-11.76,12.18-22.32,11.95-23.35Z"/>
    </g>
  </g>
  <g>
    <circle class="cls-2" cx="1296.42" cy="419.78" r="55.08"/>
    <path class="cls-6" d="M1320.71,428.29c.67-.13,1.35,.32,1.44,1,1.07,7.46-1.56,14.72-6.55,19.79-3.2,3.21-7.35,5.55-12.1,6.5-4.76,.94-9.49,.35-13.65-1.42-6.56-2.76-11.74-8.46-13.6-15.78-.17-.67,.28-1.34,.96-1.47l43.5-8.62Z"/>
    <path class="cls-3" d="M1315.6,449.08s0,0,0,0c-3.2,3.21-7.35,5.55-12.1,6.5-4.76,.94-9.49,.35-13.65-1.42,.69-4.65,5.23-8.86,11.37-10.08s11.97,.95,14.38,5Z"/>
    <g class="cls-7">
      <path class="cls-1" d="M1251.02,433.02c-11.05-26.69,11.41-60.3,40.31-60.23-6.31,2.62-12.03,5.78-17.09,9.72-15.6,11.97-23.57,30.91-23.23,50.51h0Z"/>
    </g>
    <g>
      <path class="cls-3" d="M1286.82,402.87s0-.05-.01-.08c-.94-4.77-5.26-8.45-10.44-7.42-4.12,.82-5.92,4.25-6.19,7.18h0c-1.36-2.61-4.34-5.1-8.46-4.28-5.18,1.03-7.77,6.07-6.82,10.84,0,.03,.01,.05,.02,.08,.18,1.04,2.29,11.59,19.94,17.03h0s0,0,0,0c0,0,0,0,0,0,0,0,0,0,0,0,0,0,0,0,0,0h0c14.24-11.76,12.18-22.32,11.95-23.35Z"/>
      <path class="cls-3" d="M1330.75,394.17s0-.05-.01-.08c-.94-4.77-5.26-8.45-10.44-7.42-4.12,.82-5.92,4.25-6.19,7.18h0c-1.36-2.61-4.34-5.1-8.46-4.28-5.18,1.03-7.77,6.07-6.82,10.84,0,.03,.01,.05,.02,.08,.18,1.04,2.29,11.59,19.94,17.03h0s0,0,0,0c0,0,0,0,0,0,0,0,0,0,0,0,0,0,0,0,0,0h0c14.24-11.76,12.18-22.32,11.95-23.35Z"/>
    </g>
  </g>
  <g>
    <circle class="cls-2" cx="1948.73" cy="601.62" r="55.08"/>
    <path class="cls-6" d="M1973.02,610.14c.67-.13,1.35,.32,1.44,1,1.07,7.46-1.56,14.72-6.55,19.79-3.2,3.21-7.35,5.55-12.1,6.5-4.76,.94-9.49,.35-13.65-1.42-6.56-2.76-11.74-8.46-13.6-15.78-.17-.67,.28-1.34,.96-1.47l43.5-8.62Z"/>
    <path class="cls-3" d="M1967.91,630.92s0,0,0,0c-3.2,3.21-7.35,5.55-12.1,6.5-4.76,.94-9.49,.35-13.65-1.42,.69-4.65,5.23-8.86,11.37-10.08s11.97,.95,14.38,5Z"/>
    <g class="cls-7">
      <path class="cls-1" d="M1903.32,614.86c-11.05-26.69,11.41-60.3,40.31-60.23-6.31,2.62-12.03,5.78-17.09,9.72-15.6,11.97-23.57,30.91-23.23,50.51h0Z"/>
    </g>
    <g>
      <path class="cls-3" d="M1939.12,584.71s0-.05-.01-.08c-.94-4.77-5.26-8.45-10.44-7.42-4.12,.82-5.92,4.25-6.19,7.18h0c-1.36-2.61-4.34-5.1-8.46-4.28-5.18,1.03-7.77,6.07-6.82,10.84,0,.03,.01,.05,.02,.08,.18,1.04,2.29,11.59,19.94,17.03h0s0,0,0,0c0,0,0,0,0,0,0,0,0,0,0,0,0,0,0,0,0,0h0c14.24-11.76,12.18-22.32,11.95-23.35Z"/>
      <path class="cls-3" d="M1983.06,576.01s0-.05-.01-.08c-.94-4.77-5.26-8.45-10.44-7.42-4.12,.82-5.92,4.25-6.19,7.18h0c-1.36-2.61-4.34-5.1-8.46-4.28-5.18,1.03-7.77,6.07-6.82,10.84,0,.03,.01,.05,.02,.08,.18,1.04,2.29,11.59,19.94,17.03h0s0,0,0,0c0,0,0,0,0,0,0,0,0,0,0,0,0,0,0,0,0,0h0c14.24-11.76,12.18-22.32,11.95-23.35Z"/>
    </g>
  </g>
  <g>
    <circle class="cls-2" cx="1323.68" cy="897.11" r="47.54"/>
    <path class="cls-6" d="M1344.65,904.46c.58-.12,1.16,.27,1.25,.86,.92,6.44-1.35,12.71-5.65,17.08-2.76,2.77-6.34,4.79-10.45,5.61-4.11,.81-8.19,.31-11.78-1.22-5.66-2.38-10.13-7.3-11.74-13.62-.15-.57,.24-1.16,.82-1.27l37.55-7.44Z"/>
    <path class="cls-3" d="M1340.24,922.4s0,0,0,0c-2.76,2.77-6.34,4.79-10.45,5.61-4.11,.81-8.19,.31-11.78-1.22,.59-4.01,4.51-7.65,9.82-8.7,5.32-1.05,10.33,.82,12.41,4.32Z"/>
    <g class="cls-7">
      <path class="cls-1" d="M1284.49,908.54c-9.54-23.04,9.85-52.04,34.79-51.99-5.45,2.26-10.39,4.99-14.75,8.39-13.46,10.33-20.34,26.68-20.05,43.6h0Z"/>
    </g>
    <g>
      <path class="cls-3" d="M1315.39,882.52s0-.04-.01-.07c-.81-4.11-4.54-7.29-9.01-6.4-3.55,.7-5.11,3.67-5.34,6.2h0c-1.18-2.25-3.74-4.4-7.3-3.69-4.47,.89-6.7,5.24-5.89,9.36,0,.02,.01,.04,.01,.07,.15,.9,1.98,10,17.21,14.7h0s0,0,0,0c0,0,0,0,0,0,0,0,0,0,0,0,0,0,0,0,0,0h0c12.29-10.15,10.51-19.26,10.31-20.15Z"/>
      <path class="cls-3" d="M1353.31,875.01s0-.04-.01-.07c-.81-4.11-4.54-7.29-9.01-6.4-3.55,.7-5.11,3.67-5.34,6.2h0c-1.18-2.25-3.74-4.4-7.3-3.69-4.47,.89-6.7,5.24-5.89,9.36,0,.02,.01,.04,.01,.07,.15,.9,1.98,10,17.21,14.7h0s0,0,0,0c0,0,0,0,0,0,0,0,0,0,0,0,0,0,0,0,0,0h0c12.29-10.15,10.51-19.26,10.31-20.15Z"/>
    </g>
  </g>
  <g>
    <circle class="cls-2" cx="1519.55" cy="1068.4" r="55.08"/>
    <path class="cls-6" d="M1529.84,1092c.56,.4,.68,1.2,.25,1.74-4.74,5.86-11.85,8.87-18.96,8.66-4.53-.16-9.07-1.6-13-4.45-3.93-2.85-6.72-6.71-8.25-10.97-2.44-6.69-1.79-14.36,2.31-20.7,.37-.58,1.17-.7,1.73-.3l35.91,26.02Z"/>
    <path class="cls-3" d="M1511.13,1102.4s0,0,0,0c-4.53-.16-9.07-1.6-13-4.45-3.93-2.85-6.72-6.71-8.25-10.97,3.87-2.66,10.05-2.2,15.13,1.48s7.45,9.42,6.12,13.94Z"/>
    <g class="cls-7">
      <path class="cls-1" d="M1478.95,1044.14c12.04-26.26,51.96-32.66,71.57-11.44-6.22-2.84-12.43-4.88-18.75-5.91-19.39-3.28-38.69,3.76-52.82,17.35h0Z"/>
    </g>
    <g>
      <path class="cls-3" d="M1525.4,1049.86s.03-.04,.05-.06c2.85-3.93,2.61-9.6-1.66-12.7-3.4-2.46-7.14-1.45-9.47,.35h0c.98-2.77,.78-6.65-2.62-9.11-4.28-3.1-9.73-1.56-12.58,2.38-.02,.02-.03,.04-.04,.06-.64,.84-6.93,9.57,1.09,26.2h0s0,0,0,0c0,0,0,0,0,0,0,0,0,0,0,0,0,0,0,0,0,0h0c18.31,2.44,24.64-6.26,25.24-7.13Z"/>
      <path class="cls-3" d="M1561.68,1076.14s.03-.04,.05-.06c2.85-3.93,2.61-9.6-1.66-12.7-3.4-2.46-7.14-1.45-9.47,.35h0c.98-2.77,.78-6.65-2.62-9.11-4.28-3.1-9.73-1.56-12.58,2.38-.02,.02-.03,.04-.04,.06-.64,.84-6.93,9.57,1.09,26.2h0s0,0,0,0c0,0,0,0,0,0,0,0,0,0,0,0,0,0,0,0,0,0h0c18.31,2.44,24.64-6.26,25.24-7.13Z"/>
    </g>
  </g>
  <g>
    <circle class="cls-2" cx="1548.95" cy="501.78" r="55.08"/>
    <path class="cls-6" d="M1562.71,523.54c.61,.31,.86,1.09,.51,1.68-3.79,6.51-10.37,10.57-17.42,11.45-4.5,.53-9.21-.21-13.52-2.42-4.31-2.21-7.66-5.61-9.82-9.58-3.43-6.24-3.95-13.92-.86-20.81,.28-.63,1.05-.87,1.66-.56l39.46,20.25Z"/>
    <path class="cls-3" d="M1545.8,536.66s0,0,0,0c-4.5,.53-9.21-.21-13.52-2.42-4.31-2.21-7.66-5.61-9.82-9.58,3.42-3.22,9.6-3.7,15.17-.84,5.59,2.87,8.8,8.17,8.17,12.85Z"/>
    <g class="cls-7">
      <path class="cls-1" d="M1505.13,483.97c7.91-27.78,46.38-40.19,69-22.19-6.58-1.86-13.02-2.94-19.43-2.99-19.66-.3-37.67,9.6-49.57,25.18h0Z"/>
    </g>
    <g>
      <path class="cls-3" d="M1551.91,482.56s.03-.04,.04-.07c2.22-4.32,1.12-9.89-3.58-12.3-3.74-1.92-7.28-.34-9.31,1.79h0c.55-2.89-.24-6.69-3.97-8.61-4.7-2.41-9.86-.06-12.08,4.26-.01,.02-.02,.05-.03,.07-.51,.93-5.4,10.51,5.06,25.73h0s0,0,0,0c0,0,0,0,0,0,0,0,0,0,0,0,0,0,0,0,0,0h0c18.47-.38,23.4-9.94,23.86-10.89Z"/>
      <path class="cls-3" d="M1591.76,503.02s.03-.04,.04-.07c2.22-4.32,1.12-9.89-3.58-12.3-3.74-1.92-7.28-.34-9.31,1.79h0c.55-2.89-.24-6.69-3.97-8.61-4.7-2.41-9.86-.06-12.08,4.26-.01,.02-.02,.05-.03,.07-.51,.93-5.4,10.51,5.06,25.73h0s0,0,0,0c0,0,0,0,0,0,0,0,0,0,0,0,0,0,0,0,0,0h0c18.47-.38,23.4-9.94,23.86-10.89Z"/>
    </g>
  </g>
  <g>
    <circle class="cls-5" cx="1219.63" cy="1024.66" r="77.94"/>
    <g class="cls-7">
      <path class="cls-1" d="M1152.69,1029.86c-8-40.08,32.42-80.56,72.52-72.52-9.48,1.9-18.29,4.72-26.39,8.79-24.94,12.33-41.21,36.42-46.13,63.73h0Z"/>
    </g>
    <g>
      <path class="cls-1" d="M1256.42,1009.67h-11.08s-4.49,0-4.49,0h-8.56c-.61,0-1.08-.58-.91-1.17,.98-3.48,1.07-7.26,1.07-10.83,0-1.97,.09-4.21-.12-6.37-.22-2.19-.76-4.31-2.06-5.98-1.43-1.85-3.57-3.23-5.95-3.23-5.51,0-6.38,5.4-6.9,9.77-.6,5.1-.84,10.38-3.09,15.09-1.58,3.29-3.82,6.12-7.33,7.51-2.7,1.07-4.69,1.9-7.54,2.45-.44,.09-.76,.47-.76,.92v35.68c0,.52,.42,.94,.94,.94h9.87c.3,0,.58,.15,.75,.39,1.95,2.61,5.06,4.3,8.57,4.3h15.35s11.15,0,11.15,0h4.42c4.51,0,8.21-3.69,8.21-8.21h0c0-1.17-.28-2.27-.78-3.25-.2-.39-.1-.86,.24-1.13,1.67-1.33,2.75-4.38,2.75-6.67v-.94c0-1.17-.28-2.27-.78-3.25-.2-.39-.1-.86,.24-1.13,1.67-1.33,2.75-3.38,2.75-5.68v-.94c0-1.17-.28-2.27-.78-3.25-.2-.39-.1-.86,.24-1.13,1.67-1.33,2.75-3.38,2.75-5.68h0c0-4.51-3.69-8.21-8.21-8.21Z"/>
      <rect class="cls-1" x="1174.64" y="1012.89" width="19.04" height="45.21" rx="1.04" ry="1.04"/>
    </g>
  </g>
  <g>
    <circle class="cls-5" cx="397.26" cy="804.84" r="18.83"/>
    <g class="cls-7">
      <path class="cls-1" d="M381.09,806.1c-1.93-9.68,7.83-19.46,17.52-17.52-2.29,.46-4.42,1.14-6.38,2.12-6.03,2.98-9.96,8.8-11.15,15.4h0Z"/>
    </g>
    <g>
      <path class="cls-1" d="M406.15,801.22h-2.68s-1.09,0-1.09,0h-2.07c-.15,0-.26-.14-.22-.28,.24-.84,.26-1.75,.26-2.62,0-.48,.02-1.02-.03-1.54-.05-.53-.18-1.04-.5-1.44-.35-.45-.86-.78-1.44-.78-1.33,0-1.54,1.3-1.67,2.36-.14,1.23-.2,2.51-.75,3.65-.38,.8-.92,1.48-1.77,1.81-.65,.26-1.13,.46-1.82,.59-.11,.02-.18,.11-.18,.22v8.62c0,.13,.1,.23,.23,.23h2.38c.07,0,.14,.04,.18,.09,.47,.63,1.22,1.04,2.07,1.04h3.71s2.69,0,2.69,0h1.07c1.09,0,1.98-.89,1.98-1.98h0c0-.28-.07-.55-.19-.79-.05-.09-.02-.21,.06-.27,.4-.32,.67-1.06,.67-1.61v-.23c0-.28-.07-.55-.19-.79-.05-.09-.02-.21,.06-.27,.4-.32,.67-.82,.67-1.37v-.23c0-.28-.07-.55-.19-.79-.05-.09-.02-.21,.06-.27,.4-.32,.67-.82,.67-1.37h0c0-1.09-.89-1.98-1.98-1.98Z"/>
      <rect class="cls-1" x="386.39" y="802" width="4.6" height="10.92" rx=".51" ry=".51"/>
    </g>
  </g>
  <g>
    <circle class="cls-5" cx="418.19" cy="1018.31" r="77.94"/>
    <g class="cls-7">
      <path class="cls-1" d="M351.25,1023.52c-8-40.08,32.42-80.56,72.52-72.52-9.48,1.9-18.29,4.72-26.39,8.79-24.94,12.33-41.21,36.42-46.13,63.73h0Z"/>
    </g>
    <g>
      <path class="cls-1" d="M454.98,1003.32h-11.08s-4.49,0-4.49,0h-8.56c-.61,0-1.08-.58-.91-1.17,.98-3.48,1.07-7.26,1.07-10.83,0-1.97,.09-4.21-.12-6.37-.22-2.19-.76-4.31-2.06-5.98-1.43-1.85-3.57-3.23-5.95-3.23-5.51,0-6.38,5.4-6.9,9.77-.6,5.1-.84,10.38-3.09,15.09-1.58,3.29-3.82,6.12-7.33,7.51-2.7,1.07-4.69,1.9-7.54,2.45-.44,.09-.76,.47-.76,.92v35.68c0,.52,.42,.94,.94,.94h9.87c.3,0,.58,.15,.75,.39,1.95,2.61,5.06,4.3,8.57,4.3h15.35s11.15,0,11.15,0h4.42c4.51,0,8.21-3.69,8.21-8.21h0c0-1.17-.28-2.27-.78-3.25-.2-.39-.1-.86,.24-1.13,1.67-1.33,2.75-4.38,2.75-6.67v-.94c0-1.17-.28-2.27-.78-3.25-.2-.39-.1-.86,.24-1.13,1.67-1.33,2.75-3.38,2.75-5.68v-.94c0-1.17-.28-2.27-.78-3.25-.2-.39-.1-.86,.24-1.13,1.67-1.33,2.75-3.38,2.75-5.68h0c0-4.51-3.69-8.21-8.21-8.21Z"/>
      <rect class="cls-1" x="373.2" y="1006.54" width="19.04" height="45.21" rx="1.04" ry="1.04"/>
    </g>
  </g>
  <g>
    <circle class="cls-5" cx="689.11" cy="407.99" r="65.54"/>
    <g class="cls-7">
      <path class="cls-1" d="M632.81,412.37c-6.73-33.71,27.26-67.75,60.98-60.99-7.97,1.6-15.38,3.97-22.19,7.39-20.98,10.37-34.66,30.63-38.79,53.59h0Z"/>
    </g>
    <g>
      <path class="cls-1" d="M720.05,395.38h-9.32s-3.78,0-3.78,0h-7.19c-.51,0-.91-.49-.77-.98,.83-2.93,.9-6.11,.9-9.11,0-1.66,.08-3.54-.1-5.36-.19-1.85-.64-3.62-1.73-5.03-1.21-1.56-3-2.72-5-2.72-4.63,0-5.37,4.54-5.8,8.22-.5,4.29-.7,8.73-2.6,12.69-1.33,2.77-3.21,5.15-6.17,6.32-2.27,.9-3.94,1.59-6.34,2.06-.37,.07-.64,.39-.64,.77v30c0,.44,.35,.79,.79,.79h8.3c.25,0,.48,.12,.63,.33,1.64,2.2,4.25,3.62,7.2,3.62h12.91s9.38,0,9.38,0h3.72c3.8,0,6.9-3.11,6.9-6.9h0c0-.98-.24-1.91-.65-2.74-.17-.33-.08-.72,.21-.95,1.41-1.12,2.32-3.68,2.32-5.61v-.79c0-.98-.24-1.91-.66-2.74-.17-.33-.08-.72,.21-.95,1.41-1.12,2.32-2.85,2.32-4.77v-.79c0-.98-.24-1.91-.66-2.74-.17-.33-.08-.72,.21-.95,1.41-1.12,2.32-2.85,2.32-4.77h0c0-3.8-3.11-6.9-6.9-6.9Z"/>
      <rect class="cls-1" x="651.27" y="398.09" width="16.01" height="38.02" rx="1.04" ry="1.04"/>
    </g>
  </g>
  <g>
    <circle class="cls-5" cx="669.9" cy="708.56" r="25.34"/>
    <g class="cls-7">
      <path class="cls-1" d="M648.14,710.25c-2.6-13.03,10.54-26.19,23.57-23.58-3.08,.62-5.95,1.53-8.58,2.86-8.11,4.01-13.4,11.84-15,20.72h0Z"/>
    </g>
    <g>
      <path class="cls-1" d="M681.86,703.69h-3.6s-1.46,0-1.46,0h-2.78c-.2,0-.35-.19-.3-.38,.32-1.13,.35-2.36,.35-3.52,0-.64,.03-1.37-.04-2.07-.07-.71-.25-1.4-.67-1.94-.47-.6-1.16-1.05-1.93-1.05-1.79,0-2.08,1.76-2.24,3.18-.19,1.66-.27,3.38-1.01,4.91-.51,1.07-1.24,1.99-2.38,2.44-.88,.35-1.52,.62-2.45,.8-.14,.03-.25,.15-.25,.3v11.6c0,.17,.14,.31,.31,.31h3.21c.1,0,.19,.05,.25,.13,.63,.85,1.64,1.4,2.78,1.4h4.99s3.63,0,3.63,0h1.44c1.47,0,2.67-1.2,2.67-2.67h0c0-.38-.09-.74-.25-1.06-.06-.13-.03-.28,.08-.37,.54-.43,.9-1.42,.9-2.17v-.31c0-.38-.09-.74-.25-1.06-.06-.13-.03-.28,.08-.37,.54-.43,.9-1.1,.9-1.85v-.31c0-.38-.09-.74-.25-1.06-.06-.13-.03-.28,.08-.37,.54-.43,.9-1.1,.9-1.85h0c0-1.47-1.2-2.67-2.67-2.67Z"/>
      <rect class="cls-1" x="655.27" y="704.73" width="6.19" height="14.7" rx="1.04" ry="1.04"/>
    </g>
  </g>
  <g>
    <circle class="cls-2" cx="604.69" cy="988.21" r="69.58"/>
    <g>
      <path class="cls-4" d="M573.65,956.44c.62-4.44,6.78-5.38,8.69-1.32,.01,.03,.03,.06,.04,.08,1.26,2.8,2.09,5.66,2.54,8.58,.45,2.92,.52,5.9,.15,8.95,0,.05-.01,.09-.02,.14-.62,4.44-6.78,5.38-8.7,1.33-.02-.04-.04-.08-.06-.13-1.26-2.8-2.09-5.66-2.53-8.59-.44-2.92-.5-5.9-.13-8.95,0-.03,0-.06,.01-.09Z"/>
      <path class="cls-4" d="M616.14,949.96c.62-4.44,6.78-5.38,8.69-1.32,.01,.03,.03,.06,.04,.08,1.26,2.8,2.09,5.66,2.54,8.58,.45,2.92,.52,5.9,.15,8.95,0,.05-.01,.09-.02,.14-.62,4.44-6.78,5.38-8.7,1.33-.02-.04-.04-.08-.06-.13-1.26-2.8-2.09-5.66-2.53-8.59-.44-2.92-.5-5.9-.13-8.95,0-.03,0-.06,.01-.09Z"/>
    </g>
    <g class="cls-7">
      <path class="cls-1" d="M546.65,1002.38c-12.45-34.3,17.78-75.46,54.25-73.76-8.11,2.96-15.51,6.62-22.11,11.31-20.35,14.24-31.48,37.69-32.14,62.45h0Z"/>
    </g>
    <g>
      <path class="cls-6" d="M619.79,1008.27c.34,2.24,.5,4.45,.45,6.54-.12,9.14-3.6,16.31-8.9,17.12s-10.75-5-13.57-13.69c-.67-1.98-1.18-4.13-1.52-6.37-1.84-12.08,1.93-22.66,8.43-23.65,6.5-.99,13.27,7.98,15.11,20.06Z"/>
      <path class="cls-3" d="M620.24,1014.81c-.12,9.14-3.6,16.31-8.9,17.12s-10.75-5-13.57-13.69c3.25-1.49,6.97-2.6,10.98-3.21,4.03-.61,7.93-.66,11.5-.21Z"/>
    </g>
  </g>
  <g>
    <circle class="cls-2" cx="1445.18" cy="970.3" r="34.78"/>
    <g>
      <path class="cls-4" d="M1429.67,954.42c.31-2.22,3.39-2.69,4.35-.66,0,.01,.01,.03,.02,.04,.63,1.4,1.05,2.83,1.27,4.29,.23,1.46,.26,2.95,.07,4.47,0,.02,0,.05,0,.07-.31,2.22-3.39,2.69-4.35,.66,0-.02-.02-.04-.03-.06-.63-1.4-1.05-2.83-1.26-4.29-.22-1.46-.25-2.95-.07-4.48,0-.02,0-.03,0-.05Z"/>
      <path class="cls-4" d="M1450.91,951.18c.31-2.22,3.39-2.69,4.35-.66,0,.01,.01,.03,.02,.04,.63,1.4,1.05,2.83,1.27,4.29,.23,1.46,.26,2.95,.07,4.47,0,.02,0,.05,0,.07-.31,2.22-3.39,2.69-4.35,.66,0-.02-.02-.04-.03-.06-.63-1.4-1.05-2.83-1.26-4.29-.22-1.46-.25-2.95-.07-4.48,0-.02,0-.03,0-.05Z"/>
    </g>
    <g class="cls-7">
      <path class="cls-1" d="M1416.17,977.39c-6.22-17.15,8.89-37.72,27.12-36.87-4.05,1.48-7.75,3.31-11.05,5.65-10.18,7.12-15.74,18.84-16.07,31.22h0Z"/>
    </g>
    <g>
      <path class="cls-6" d="M1452.73,980.33c.17,1.12,.25,2.22,.23,3.27-.06,4.57-1.8,8.15-4.45,8.56-2.65,.4-5.38-2.5-6.79-6.84-.33-.99-.59-2.07-.76-3.19-.92-6.04,.96-11.33,4.21-11.82,3.25-.5,6.63,3.99,7.55,10.03Z"/>
      <path class="cls-3" d="M1452.96,983.6c-.06,4.57-1.8,8.15-4.45,8.56-2.65,.4-5.38-2.5-6.79-6.84,1.63-.74,3.48-1.3,5.49-1.61,2.02-.31,3.96-.33,5.75-.11Z"/>
    </g>
  </g>
  <g>
    <circle class="cls-2" cx="623.81" cy="585.04" r="43.85"/>
    <g>
      <path class="cls-4" d="M604.25,565.02c.39-2.8,4.27-3.39,5.48-.83,0,.02,.02,.04,.02,.05,.8,1.76,1.32,3.57,1.6,5.41,.29,1.84,.33,3.72,.09,5.64,0,.03,0,.06-.01,.09-.39,2.8-4.27,3.39-5.48,.84-.01-.03-.02-.05-.04-.08-.8-1.76-1.32-3.57-1.59-5.41-.28-1.84-.32-3.72-.08-5.64,0-.02,0-.04,0-.06Z"/>
      <path class="cls-4" d="M631.03,560.94c.39-2.8,4.27-3.39,5.48-.83,0,.02,.02,.04,.02,.05,.8,1.76,1.32,3.57,1.6,5.41,.29,1.84,.33,3.72,.09,5.64,0,.03,0,.06-.01,.09-.39,2.8-4.27,3.39-5.48,.84-.01-.03-.02-.05-.04-.08-.8-1.76-1.32-3.57-1.59-5.41-.28-1.84-.32-3.72-.08-5.64,0-.02,0-.04,0-.06Z"/>
    </g>
    <g class="cls-7">
      <path class="cls-1" d="M587.24,593.98c-7.85-21.62,11.2-47.56,34.19-46.48-5.11,1.86-9.78,4.17-13.93,7.13-12.83,8.97-19.84,23.75-20.26,39.36h0Z"/>
    </g>
    <g>
      <path class="cls-6" d="M633.33,597.69c.22,1.41,.31,2.8,.28,4.12-.08,5.76-2.27,10.28-5.61,10.79-3.34,.51-6.78-3.15-8.55-8.63-.42-1.25-.74-2.61-.96-4.02-1.16-7.61,1.21-14.28,5.31-14.91,4.1-.62,8.36,5.03,9.52,12.64Z"/>
      <path class="cls-3" d="M633.62,601.81c-.08,5.76-2.27,10.28-5.61,10.79-3.34,.51-6.78-3.15-8.55-8.63,2.05-.94,4.39-1.64,6.92-2.02,2.54-.39,5-.42,7.24-.13Z"/>
    </g>
  </g>
  <g>
    <circle class="cls-2" cx="1397.71" cy="325.19" r="43.85"/>
    <g>
      <path class="cls-4" d="M1378.15,305.17c.39-2.8,4.27-3.39,5.48-.83,0,.02,.02,.04,.02,.05,.8,1.76,1.32,3.57,1.6,5.41,.29,1.84,.33,3.72,.09,5.64,0,.03,0,.06-.01,.09-.39,2.8-4.27,3.39-5.48,.84-.01-.03-.02-.05-.04-.08-.8-1.76-1.32-3.57-1.59-5.41-.28-1.84-.32-3.72-.08-5.64,0-.02,0-.04,0-.06Z"/>
      <path class="cls-4" d="M1404.92,301.09c.39-2.8,4.27-3.39,5.48-.83,0,.02,.02,.04,.02,.05,.8,1.76,1.32,3.57,1.6,5.41,.29,1.84,.33,3.72,.09,5.64,0,.03,0,.06-.01,.09-.39,2.8-4.27,3.39-5.48,.84-.01-.03-.02-.05-.04-.08-.8-1.76-1.32-3.57-1.59-5.41-.28-1.84-.32-3.72-.08-5.64,0-.02,0-.04,0-.06Z"/>
    </g>
    <g class="cls-7">
      <path class="cls-1" d="M1361.13,334.13c-7.85-21.62,11.2-47.56,34.19-46.48-5.11,1.86-9.78,4.17-13.93,7.13-12.83,8.97-19.84,23.75-20.26,39.36h0Z"/>
    </g>
    <g>
      <path class="cls-6" d="M1407.23,337.84c.22,1.41,.31,2.8,.28,4.12-.08,5.76-2.27,10.28-5.61,10.79s-6.78-3.15-8.55-8.63c-.42-1.25-.74-2.61-.96-4.02-1.16-7.61,1.21-14.28,5.31-14.91s8.36,5.03,9.52,12.64Z"/>
      <path class="cls-3" d="M1407.51,341.96c-.08,5.76-2.27,10.28-5.61,10.79s-6.78-3.15-8.55-8.63c2.05-.94,4.39-1.64,6.92-2.02s5-.42,7.24-.13Z"/>
    </g>
  </g>
  <g>
    <circle class="cls-2" cx="789.9" cy="397.22" r="43.85"/>
    <g>
      <path class="cls-4" d="M770.34,377.2c.39-2.8,4.27-3.39,5.48-.83,0,.02,.02,.04,.02,.05,.8,1.76,1.32,3.57,1.6,5.41,.29,1.84,.33,3.72,.09,5.64,0,.03,0,.06-.01,.09-.39,2.8-4.27,3.39-5.48,.84-.01-.03-.02-.05-.04-.08-.8-1.76-1.32-3.57-1.59-5.41-.28-1.84-.32-3.72-.08-5.64,0-.02,0-.04,0-.06Z"/>
      <path class="cls-4" d="M797.11,373.12c.39-2.8,4.27-3.39,5.48-.83,0,.02,.02,.04,.02,.05,.8,1.76,1.32,3.57,1.6,5.41,.29,1.84,.33,3.72,.09,5.64,0,.03,0,.06-.01,.09-.39,2.8-4.27,3.39-5.48,.84-.01-.03-.02-.05-.04-.08-.8-1.76-1.32-3.57-1.59-5.41-.28-1.84-.32-3.72-.08-5.64,0-.02,0-.04,0-.06Z"/>
    </g>
    <g class="cls-7">
      <path class="cls-1" d="M753.32,406.15c-7.85-21.62,11.2-47.56,34.19-46.48-5.11,1.86-9.78,4.17-13.93,7.13-12.83,8.97-19.84,23.75-20.26,39.36h0Z"/>
    </g>
    <g>
      <path class="cls-6" d="M799.42,409.87c.22,1.41,.31,2.8,.28,4.12-.08,5.76-2.27,10.28-5.61,10.79s-6.78-3.15-8.55-8.63c-.42-1.25-.74-2.61-.96-4.02-1.16-7.61,1.21-14.28,5.31-14.91s8.36,5.03,9.52,12.64Z"/>
      <path class="cls-3" d="M799.7,413.99c-.08,5.76-2.27,10.28-5.61,10.79s-6.78-3.15-8.55-8.63c2.05-.94,4.39-1.64,6.92-2.02s5-.42,7.24-.13Z"/>
    </g>
  </g>
  <g>
    <circle class="cls-2" cx="535.11" cy="334.13" r="43.85"/>
    <g>
      <path class="cls-4" d="M536.64,306.18c2.33-1.6,5.39,.86,4.32,3.47,0,.02-.01,.04-.02,.05-.76,1.78-1.74,3.38-2.9,4.84-1.16,1.46-2.52,2.75-4.1,3.88-.02,.02-.05,.03-.07,.05-2.33,1.61-5.39-.86-4.32-3.47,.01-.03,.02-.05,.03-.08,.76-1.78,1.74-3.38,2.91-4.83,1.17-1.45,2.53-2.75,4.1-3.87,.02-.01,.03-.02,.05-.03Z"/>
      <path class="cls-4" d="M557.75,323.15c2.33-1.6,5.39,.86,4.32,3.47,0,.02-.01,.04-.02,.05-.76,1.78-1.74,3.38-2.9,4.84-1.16,1.46-2.52,2.75-4.1,3.88-.02,.02-.05,.03-.07,.05-2.33,1.61-5.39-.86-4.32-3.47,.01-.03,.02-.05,.03-.08,.76-1.78,1.74-3.38,2.91-4.83,1.17-1.45,2.53-2.75,4.1-3.87,.02-.01,.03-.02,.05-.03Z"/>
    </g>
    <g class="cls-7">
      <path class="cls-1" d="M503.8,313.21c10.63-20.39,42.62-23.89,57.37-6.22-4.83-2.51-9.68-4.38-14.67-5.45-15.28-3.39-30.91,1.43-42.7,11.67h0Z"/>
    </g>
    <g>
      <path class="cls-6" d="M532.22,349.69c-.9,1.11-1.85,2.12-2.84,2.99-4.3,3.84-9.11,5.27-11.74,3.16-2.63-2.12-2.26-7.12,.58-12.14,.64-1.15,1.42-2.31,2.31-3.42,4.83-6,11.35-8.76,14.58-6.16,3.23,2.6,1.95,9.56-2.88,15.57Z"/>
      <path class="cls-3" d="M529.38,352.68c-4.3,3.84-9.11,5.27-11.74,3.16-2.63-2.12-2.26-7.12,.58-12.14,2.08,.88,4.18,2.13,6.17,3.73,2,1.61,3.69,3.4,5,5.25Z"/>
    </g>
  </g>
  <g>
    <circle class="cls-2" cx="1477.47" cy="747.17" r="37.36"/>
    <g>
      <path class="cls-4" d="M1472.29,723.89c1.54-1.85,4.62-.54,4.34,1.85,0,.02,0,.03,0,.05-.21,1.63-.65,3.18-1.27,4.64-.62,1.46-1.43,2.84-2.47,4.13-.02,.02-.03,.04-.05,.06-1.54,1.85-4.62,.54-4.34-1.86,0-.02,0-.05,0-.07,.22-1.63,.65-3.18,1.28-4.63,.63-1.46,1.44-2.84,2.47-4.12,.01-.01,.02-.03,.03-.04Z"/>
      <path class="cls-4" d="M1493.51,732.95c1.54-1.85,4.62-.54,4.34,1.85,0,.02,0,.03,0,.05-.21,1.63-.65,3.18-1.27,4.64-.62,1.46-1.43,2.84-2.47,4.13-.02,.02-.03,.04-.05,.06-1.54,1.85-4.62,.54-4.34-1.86,0-.02,0-.05,0-.07,.22-1.63,.65-3.18,1.28-4.63,.63-1.46,1.44-2.84,2.47-4.12,.01-.01,.02-.03,.03-.04Z"/>
    </g>
    <g class="cls-7">
      <path class="cls-1" d="M1446.97,737.22c4.02-19.18,29.46-29.41,45.62-18.32-4.54-.95-8.95-1.36-13.29-1.09-13.32,.74-25.03,8.3-32.33,19.41h0Z"/>
    </g>
    <g>
      <path class="cls-6" d="M1478.68,760.6c-.48,1.12-1.03,2.17-1.64,3.11-2.64,4.14-6.26,6.42-8.9,5.29-2.65-1.13-3.49-5.32-2.32-10.09,.26-1.09,.63-2.22,1.11-3.34,2.58-6.03,7.29-9.8,10.54-8.41s3.8,7.4,1.22,13.43Z"/>
      <path class="cls-3" d="M1477.04,763.71c-2.64,4.14-6.26,6.42-8.9,5.29-2.65-1.13-3.49-5.32-2.32-10.09,1.91,.24,3.91,.78,5.92,1.64s3.81,1.94,5.31,3.15Z"/>
    </g>
  </g>
  <path class="cls-2" d="M743.7,1021.52c4.94-.33,9.77-1.39,13.94-3.2-4.17-1.82-9-2.88-13.94-3.2-.33-4.94-1.39-9.77-3.2-13.94-1.81,4.17-2.88,9-3.2,13.94-4.94,.32-9.77,1.38-13.94,3.21,4.17,1.83,9,2.89,13.94,3.21,.32,4.94,1.38,9.77,3.21,13.94,1.83-4.17,2.89-9,3.21-13.94Z"/>
  <path class="cls-2" d="M565.42,673.38c4.94-.33,9.77-1.39,13.94-3.2-4.17-1.82-9-2.88-13.94-3.2-.33-4.94-1.39-9.77-3.2-13.94-1.81,4.17-2.88,9-3.2,13.94-4.94,.32-9.77,1.38-13.94,3.21,4.17,1.83,9,2.89,13.94,3.21,.32,4.94,1.38,9.77,3.21,13.94,1.83-4.17,2.89-9,3.21-13.94Z"/>
  <path class="cls-2" d="M614.26,408.92c4.94-.33,9.77-1.39,13.94-3.2-4.17-1.82-9-2.88-13.94-3.2-.33-4.94-1.39-9.77-3.2-13.94-1.81,4.17-2.88,9-3.2,13.94-4.94,.32-9.77,1.38-13.94,3.21,4.17,1.83,9,2.89,13.94,3.21,.32,4.94,1.38,9.77,3.21,13.94,1.83-4.17,2.89-9,3.21-13.94Z"/>
  <path class="cls-2" d="M772.72,499.14c4.94-.33,9.77-1.39,13.94-3.2-4.17-1.82-9-2.88-13.94-3.2-.33-4.94-1.39-9.77-3.2-13.94-1.81,4.17-2.88,9-3.2,13.94-4.94,.32-9.77,1.38-13.94,3.21,4.17,1.83,9,2.89,13.94,3.21,.32,4.94,1.38,9.77,3.21,13.94,1.83-4.17,2.89-9,3.21-13.94Z"/>
  <path class="cls-2" d="M1426.95,524.33c4.94-.33,9.77-1.39,13.94-3.2-4.17-1.82-9-2.88-13.94-3.2-.33-4.94-1.39-9.77-3.2-13.94-1.81,4.17-2.88,9-3.2,13.94-4.94,.32-9.77,1.38-13.94,3.21,4.17,1.83,9,2.89,13.94,3.21,.32,4.94,1.38,9.77,3.21,13.94,1.83-4.17,2.89-9,3.21-13.94Z"/>
  <path class="cls-2" d="M1395.14,874.83c4.94-.33,9.77-1.39,13.94-3.2-4.17-1.82-9-2.88-13.94-3.2-.33-4.94-1.39-9.77-3.2-13.94-1.81,4.17-2.88,9-3.2,13.94-4.94,.32-9.77,1.38-13.94,3.21,4.17,1.83,9,2.89,13.94,3.21,.32,4.94,1.38,9.77,3.21,13.94,1.83-4.17,2.89-9,3.21-13.94Z"/>
  <path class="cls-2" d="M507.81,900.4c4.94-.33,9.77-1.39,13.94-3.2-4.17-1.82-9-2.88-13.94-3.2-.33-4.94-1.39-9.77-3.2-13.94-1.81,4.17-2.88,9-3.2,13.94-4.94,.32-9.77,1.38-13.94,3.21,4.17,1.83,9,2.89,13.94,3.21,.32,4.94,1.38,9.77,3.21,13.94,1.83-4.17,2.89-9,3.21-13.94Z"/>
  <path class="cls-2" d="M411.34,519.16c4.94-.33,9.77-1.39,13.94-3.2-4.17-1.82-9-2.88-13.94-3.2-.33-4.94-1.39-9.77-3.2-13.94-1.81,4.17-2.88,9-3.2,13.94-4.94,.32-9.77,1.38-13.94,3.21,4.17,1.83,9,2.89,13.94,3.21,.32,4.94,1.38,9.77,3.21,13.94,1.83-4.17,2.89-9,3.21-13.94Z"/>
  <path class="cls-2" d="M1495.8,353.46c4.94-.33,9.77-1.39,13.94-3.2-4.17-1.82-9-2.88-13.94-3.2-.33-4.94-1.39-9.77-3.2-13.94-1.81,4.17-2.88,9-3.2,13.94-4.94,.32-9.77,1.38-13.94,3.21,4.17,1.83,9,2.89,13.94,3.21,.32,4.94,1.38,9.77,3.21,13.94,1.83-4.17,2.89-9,3.21-13.94Z"/>
  <path class="cls-2" d="M1302.51,1035.2c4.94-.33,9.77-1.39,13.94-3.2-4.17-1.82-9-2.88-13.94-3.2-.33-4.94-1.39-9.77-3.2-13.94-1.81,4.17-2.88,9-3.2,13.94-4.94,.32-9.77,1.38-13.94,3.21,4.17,1.83,9,2.89,13.94,3.21,.32,4.94,1.38,9.77,3.21,13.94,1.83-4.17,2.89-9,3.21-13.94Z"/>
  <path class="cls-2" d="M1062.54,1040.74c5.75-.38,11.37-1.62,16.23-3.73-4.86-2.11-10.48-3.35-16.23-3.73-.38-5.75-1.62-11.38-3.73-16.23-2.11,4.86-3.35,10.48-3.73,16.23-5.76,.37-11.38,1.6-16.23,3.73,4.85,2.13,10.47,3.36,16.23,3.73,.37,5.75,1.6,11.37,3.73,16.23,2.13-4.86,3.36-10.48,3.73-16.23Z"/>
  <circle class="cls-2" cx="680.41" cy="849.68" r="21.93"/>
  <g>
    <g>
      <circle class="cls-2" cx="1889.37" cy="233.72" r="58.17"/>
      <g>
        <path class="cls-6" d="M1925.51,241.65c1.11,.29,1.79,1.46,1.44,2.55-3.85,11.96-13.09,20.93-24.27,24.88-7.13,2.47-15.07,2.96-22.89,.9-7.82-2.06-14.48-6.4-19.43-12.09-7.82-8.93-11.42-21.25-8.86-33.58,.23-1.12,1.4-1.8,2.51-1.51l71.5,18.85Z"/>
        <g>
          <path class="cls-4" d="M1876.12,199.03c1.95-3.2,6.99-1.87,7.11,1.87,0,.03,0,.05,0,.08,.04,2.57-.28,5.04-.9,7.43-.62,2.39-1.57,4.7-2.86,6.91-.02,.03-.04,.07-.06,.1-1.95,3.2-6.99,1.87-7.11-1.87,0-.04,0-.08,0-.12-.04-2.57,.28-5.04,.92-7.43,.64-2.39,1.58-4.7,2.88-6.91,.01-.02,.03-.04,.04-.07Z"/>
          <path class="cls-4" d="M1910.86,208.19c1.95-3.2,6.99-1.87,7.11,1.87,0,.03,0,.05,0,.08,.04,2.57-.28,5.04-.9,7.43-.62,2.39-1.57,4.7-2.86,6.91-.02,.03-.04,.07-.06,.1-1.95,3.2-6.99,1.87-7.11-1.87,0-.04,0-.08,0-.12-.04-2.57,.28-5.04,.92-7.43,.64-2.39,1.58-4.7,2.88-6.91,.01-.02,.03-.04,.04-.07Z"/>
        </g>
        <path class="cls-3" d="M1902.67,269.08s0,0,0,0c-7.13,2.47-15.07,2.96-22.89,.9-7.82-2.06-14.48-6.4-19.43-12.09,4.42-6.47,14.31-9.47,24.41-6.81,10.13,2.67,17.25,10.16,17.9,18Z"/>
      </g>
    </g>
    <g class="cls-7">
      <path class="cls-1" d="M1840.13,225.29c1.85-30.45,38.72-51.97,66.13-38.54-7.2-.43-14.1-.08-20.72,1.32-20.35,4.15-36.67,18.44-45.41,37.21h0Z"/>
    </g>
  </g>
  <g>
    <circle class="cls-3" cx="1959.12" cy="250.12" r="20.32"/>
    <g class="cls-7">
      <path class="cls-1" d="M1942.79,244.49c1.31-9.64,13.55-15.62,21.95-10.7-2.28-.31-4.48-.36-6.62-.07-6.57,.84-12.1,5-15.33,10.77h0Z"/>
    </g>
    <path class="cls-1" d="M1970.21,252s.01-.03,.02-.05c1.08-3.14-.2-6.79-3.61-7.97-2.71-.93-4.95,.47-6.12,2.11h0c.09-2.01-.81-4.5-3.52-5.43-3.41-1.18-6.67,.91-7.75,4.05,0,.02-.01,.03-.02,.05-.25,.68-2.63,7.63,5.91,16.9h0s0,0,0,0c0,0,0,0,0,0,0,0,0,0,0,0,0,0,0,0,0,0h0c12.45-2.04,14.86-8.98,15.07-9.67Z"/>
  </g>
  <g>
    <circle class="cls-5" cx="1627.11" cy="244.49" r="65.54"/>
    <g class="cls-7">
      <path class="cls-1" d="M1570.81,248.87c-6.73-33.71,27.26-67.75,60.98-60.99-7.97,1.6-15.38,3.97-22.19,7.39-20.98,10.37-34.66,30.63-38.79,53.59h0Z"/>
    </g>
    <g>
      <path class="cls-1" d="M1658.05,231.88h-9.32s-3.78,0-3.78,0h-7.19c-.51,0-.91-.49-.77-.98,.83-2.93,.9-6.11,.9-9.11,0-1.66,.08-3.54-.1-5.36-.19-1.85-.64-3.62-1.73-5.03-1.21-1.56-3-2.72-5-2.72-4.63,0-5.37,4.54-5.8,8.22-.5,4.29-.7,8.73-2.6,12.69-1.33,2.77-3.21,5.15-6.17,6.32-2.27,.9-3.94,1.59-6.34,2.06-.37,.07-.64,.39-.64,.77v30c0,.44,.35,.79,.79,.79h8.3c.25,0,.48,.12,.63,.33,1.64,2.2,4.25,3.62,7.2,3.62h12.91s9.38,0,9.38,0h3.72c3.8,0,6.9-3.11,6.9-6.9h0c0-.98-.24-1.91-.65-2.74-.17-.33-.08-.72,.21-.95,1.41-1.12,2.32-3.68,2.32-5.61v-.79c0-.98-.24-1.91-.66-2.74-.17-.33-.08-.72,.21-.95,1.41-1.12,2.32-2.85,2.32-4.77v-.79c0-.98-.24-1.91-.66-2.74-.17-.33-.08-.72,.21-.95,1.41-1.12,2.32-2.85,2.32-4.77h0c0-3.8-3.11-6.9-6.9-6.9Z"/>
      <rect class="cls-1" x="1589.27" y="234.59" width="16.01" height="38.02" rx="1.04" ry="1.04"/>
    </g>
  </g>
  <g>
    <circle class="cls-5" cx="1959.67" cy="457.59" r="21.06"/>
    <g class="cls-7">
      <path class="cls-1" d="M1941.57,458.99c-2.16-10.83,8.76-21.77,19.6-19.6-2.56,.51-4.94,1.27-7.13,2.38-6.74,3.33-11.14,9.84-12.47,17.22h0Z"/>
    </g>
    <g>
      <path class="cls-1" d="M1969.61,453.53h-2.99s-1.21,0-1.21,0h-2.31c-.17,0-.29-.16-.25-.32,.27-.94,.29-1.96,.29-2.93,0-.53,.03-1.14-.03-1.72-.06-.59-.21-1.16-.56-1.61-.39-.5-.96-.87-1.61-.87-1.49,0-1.73,1.46-1.86,2.64-.16,1.38-.23,2.81-.84,4.08-.43,.89-1.03,1.65-1.98,2.03-.73,.29-1.27,.51-2.04,.66-.12,.02-.21,.13-.21,.25v9.64c0,.14,.11,.25,.25,.25h2.67c.08,0,.16,.04,.2,.11,.53,.71,1.37,1.16,2.31,1.16h4.15s3.01,0,3.01,0h1.19c1.22,0,2.22-1,2.22-2.22h0c0-.32-.08-.61-.21-.88-.05-.11-.03-.23,.07-.31,.45-.36,.74-1.18,.74-1.8v-.25c0-.32-.08-.61-.21-.88-.05-.11-.03-.23,.07-.31,.45-.36,.74-.91,.74-1.53v-.25c0-.32-.08-.61-.21-.88-.05-.11-.03-.23,.07-.31,.45-.36,.74-.91,.74-1.53h0c0-1.22-1-2.22-2.22-2.22Z"/>
      <rect class="cls-1" x="1947.51" y="454.41" width="5.14" height="12.22" rx=".57" ry=".57"/>
    </g>
  </g>
  <g>
    <circle class="cls-5" cx="1058.84" cy="211.96" r="21.06"/>
    <g class="cls-7">
      <path class="cls-1" d="M1040.75,213.37c-2.16-10.83,8.76-21.77,19.6-19.6-2.56,.51-4.94,1.27-7.13,2.38-6.74,3.33-11.14,9.84-12.47,17.22h0Z"/>
    </g>
    <g>
      <path class="cls-1" d="M1068.78,207.91h-2.99s-1.21,0-1.21,0h-2.31c-.17,0-.29-.16-.25-.32,.27-.94,.29-1.96,.29-2.93,0-.53,.03-1.14-.03-1.72-.06-.59-.21-1.16-.56-1.61-.39-.5-.96-.87-1.61-.87-1.49,0-1.73,1.46-1.86,2.64-.16,1.38-.23,2.81-.84,4.08-.43,.89-1.03,1.65-1.98,2.03-.73,.29-1.27,.51-2.04,.66-.12,.02-.21,.13-.21,.25v9.64c0,.14,.11,.25,.25,.25h2.67c.08,0,.16,.04,.2,.11,.53,.71,1.37,1.16,2.31,1.16h4.15s3.01,0,3.01,0h1.19c1.22,0,2.22-1,2.22-2.22h0c0-.32-.08-.61-.21-.88-.05-.11-.03-.23,.07-.31,.45-.36,.74-1.18,.74-1.8v-.25c0-.32-.08-.61-.21-.88-.05-.11-.03-.23,.07-.31,.45-.36,.74-.91,.74-1.53v-.25c0-.32-.08-.61-.21-.88-.05-.11-.03-.23,.07-.31,.45-.36,.74-.91,.74-1.53h0c0-1.22-1-2.22-2.22-2.22Z"/>
      <rect class="cls-1" x="1046.68" y="208.78" width="5.14" height="12.22" rx=".57" ry=".57"/>
    </g>
  </g>
  <g>
    <circle class="cls-2" cx="1727.9" cy="233.72" r="43.85"/>
    <g>
      <path class="cls-4" d="M1708.34,213.7c.39-2.8,4.27-3.39,5.48-.83,0,.02,.02,.04,.02,.05,.8,1.76,1.32,3.57,1.6,5.41,.29,1.84,.33,3.72,.09,5.64,0,.03,0,.06-.01,.09-.39,2.8-4.27,3.39-5.48,.84-.01-.03-.02-.05-.04-.08-.8-1.76-1.32-3.57-1.59-5.41-.28-1.84-.32-3.72-.08-5.64,0-.02,0-.04,0-.06Z"/>
      <path class="cls-4" d="M1735.11,209.61c.39-2.8,4.27-3.39,5.48-.83,0,.02,.02,.04,.02,.05,.8,1.76,1.32,3.57,1.6,5.41,.29,1.84,.33,3.72,.09,5.64,0,.03,0,.06-.01,.09-.39,2.8-4.27,3.39-5.48,.84-.01-.03-.02-.05-.04-.08-.8-1.76-1.32-3.57-1.59-5.41-.28-1.84-.32-3.72-.08-5.64,0-.02,0-.04,0-.06Z"/>
    </g>
    <g class="cls-7">
      <path class="cls-1" d="M1691.32,242.65c-7.85-21.62,11.2-47.56,34.19-46.48-5.11,1.86-9.78,4.17-13.93,7.13-12.83,8.97-19.84,23.75-20.26,39.36h0Z"/>
    </g>
    <g>
      <path class="cls-6" d="M1737.42,246.36c.22,1.41,.31,2.8,.28,4.12-.08,5.76-2.27,10.28-5.61,10.79s-6.78-3.15-8.55-8.63c-.42-1.25-.74-2.61-.96-4.02-1.16-7.61,1.21-14.28,5.31-14.91s8.36,5.03,9.52,12.64Z"/>
      <path class="cls-3" d="M1737.7,250.48c-.08,5.76-2.27,10.28-5.61,10.79s-6.78-3.15-8.55-8.63c2.05-.94,4.39-1.64,6.92-2.02s5-.42,7.24-.13Z"/>
    </g>
  </g>
  <path class="cls-2" d="M1552.26,245.42c4.94-.33,9.77-1.39,13.94-3.2-4.17-1.82-9-2.88-13.94-3.2-.33-4.94-1.39-9.77-3.2-13.94-1.81,4.17-2.88,9-3.2,13.94-4.94,.32-9.77,1.38-13.94,3.21,4.17,1.83,9,2.89,13.94,3.21,.32,4.94,1.38,9.77,3.21,13.94,1.83-4.17,2.89-9,3.21-13.94Z"/>
  <path class="cls-2" d="M1966.46,387.25c4.94-.33,9.77-1.39,13.94-3.2-4.17-1.82-9-2.88-13.94-3.2-.33-4.94-1.39-9.77-3.2-13.94-1.81,4.17-2.88,9-3.2,13.94-4.94,.32-9.77,1.38-13.94,3.21,4.17,1.83,9,2.89,13.94,3.21,.32,4.94,1.38,9.77,3.21,13.94,1.83-4.17,2.89-9,3.21-13.94Z"/>
  <path class="cls-2" d="M1710.72,335.64c4.94-.33,9.77-1.39,13.94-3.2-4.17-1.82-9-2.88-13.94-3.2-.33-4.94-1.39-9.77-3.2-13.94-1.81,4.17-2.88,9-3.2,13.94-4.94,.32-9.77,1.38-13.94,3.21,4.17,1.83,9,2.89,13.94,3.21,.32,4.94,1.38,9.77,3.21,13.94,1.83-4.17,2.89-9,3.21-13.94Z"/>
  <circle class="cls-2" cx="1845.91" cy="285.42" r="21.93"/>
  <circle class="cls-3" cx="1176.57" cy="359.64" r="13.32"/>
  <circle class="cls-2" cx="458.98" cy="398.34" r="14.48"/>
  <circle class="cls-2" cx="573.4" cy="360.73" r="14.48"/>
  <circle class="cls-5" cx="1147.72" cy="1069.25" r="27.3"/>
  <circle class="cls-5" cx="1452.09" cy="397.22" r="14.48"/>
  <g>
    <g>
      <circle class="cls-2" cx="450.62" cy="178.37" r="36.22"/>
      <g>
        <path class="cls-6" d="M473.12,183.31c.69,.18,1.11,.91,.89,1.59-2.4,7.45-8.15,13.03-15.11,15.49-4.44,1.54-9.38,1.84-14.25,.56-4.87-1.28-9.02-3.98-12.1-7.53-4.87-5.56-7.11-13.23-5.52-20.91,.14-.7,.87-1.12,1.56-.94l44.53,11.74Z"/>
        <g>
          <path class="cls-4" d="M442.37,156.77c1.22-1.99,4.35-1.17,4.43,1.17,0,.02,0,.03,0,.05,.02,1.6-.17,3.14-.56,4.63-.39,1.49-.97,2.93-1.78,4.31-.01,.02-.03,.04-.04,.06-1.22,1.99-4.35,1.17-4.43-1.17,0-.02,0-.05,0-.07-.02-1.6,.17-3.14,.57-4.62,.4-1.49,.98-2.92,1.79-4.3,0-.01,.02-.03,.03-.04Z"/>
          <path class="cls-4" d="M464,162.48c1.22-1.99,4.35-1.17,4.43,1.17,0,.02,0,.03,0,.05,.02,1.6-.17,3.14-.56,4.63-.39,1.49-.97,2.93-1.78,4.31-.01,.02-.03,.04-.04,.06-1.22,1.99-4.35,1.17-4.43-1.17,0-.02,0-.05,0-.07-.02-1.6,.17-3.14,.57-4.62,.4-1.49,.98-2.92,1.79-4.3,0-.01,.02-.03,.03-.04Z"/>
        </g>
        <path class="cls-3" d="M458.9,200.4s0,0,0,0c-4.44,1.54-9.38,1.84-14.25,.56-4.87-1.28-9.02-3.98-12.1-7.53,2.75-4.03,8.91-5.9,15.2-4.24,6.31,1.66,10.74,6.33,11.15,11.21Z"/>
      </g>
    </g>
    <g class="cls-7">
      <path class="cls-1" d="M419.96,173.13c1.15-18.96,24.11-32.36,41.18-24-4.49-.27-8.78-.05-12.9,.82-12.67,2.59-22.84,11.48-28.28,23.17h0Z"/>
    </g>
  </g>
  <g>
    <circle class="cls-3" cx="574.23" cy="201.76" r="32.48"/>
    <g class="cls-7">
      <path class="cls-1" d="M546.89,205.61c-5.14-14.69,7.94-32.09,23.49-31.19-3.47,1.22-6.65,2.75-9.48,4.72-8.75,5.97-13.6,15.92-14.01,26.48h0Z"/>
    </g>
    <path class="cls-1" d="M591.4,196.38s0-.06,0-.08c-.74-5.25-5.22-9.53-10.93-8.72-4.54,.64-6.71,4.27-7.18,7.45h0c-1.33-2.93-4.42-5.82-8.96-5.18-5.71,.8-8.83,6.15-8.09,11.4,0,.03,0,.06,.01,.08,.13,1.15,1.8,12.77,20.71,19.77h0s0,0,0,0c0,0,0,0,0,0,0,0,0,0,0,0,0,0,0,0,0,0h0c16.24-11.96,14.63-23.59,14.44-24.73Z"/>
  </g>
  <g>
    <circle class="cls-2" cx="521.52" cy="138.44" r="55.08"/>
    <path class="cls-6" d="M545.81,146.95c.67-.13,1.35,.32,1.44,1,1.07,7.46-1.56,14.72-6.55,19.79-3.2,3.21-7.35,5.55-12.1,6.5-4.76,.94-9.49,.35-13.65-1.42-6.56-2.76-11.74-8.46-13.6-15.78-.17-.67,.28-1.34,.96-1.47l43.5-8.62Z"/>
    <path class="cls-3" d="M540.71,167.74s0,0,0,0c-3.2,3.21-7.35,5.55-12.1,6.5-4.76,.94-9.49,.35-13.65-1.42,.69-4.65,5.23-8.86,11.37-10.08s11.97,.95,14.38,5Z"/>
    <g class="cls-7">
      <path class="cls-1" d="M476.12,151.68c-11.05-26.69,11.41-60.3,40.31-60.23-6.31,2.62-12.03,5.78-17.09,9.72-15.6,11.97-23.57,30.91-23.23,50.51h0Z"/>
    </g>
    <g>
      <path class="cls-3" d="M511.92,121.53s0-.05-.01-.08c-.94-4.77-5.26-8.45-10.44-7.42-4.12,.82-5.92,4.25-6.19,7.18h0c-1.36-2.61-4.34-5.1-8.46-4.28-5.18,1.03-7.77,6.07-6.82,10.84,0,.03,.01,.05,.02,.08,.18,1.04,2.29,11.59,19.94,17.03h0s0,0,0,0c0,0,0,0,0,0,0,0,0,0,0,0,0,0,0,0,0,0h0c14.24-11.76,12.18-22.32,11.95-23.35Z"/>
      <path class="cls-3" d="M555.86,112.83s0-.05-.01-.08c-.94-4.77-5.26-8.45-10.44-7.42-4.12,.82-5.92,4.25-6.19,7.18h0c-1.36-2.61-4.34-5.1-8.46-4.28-5.18,1.03-7.77,6.07-6.82,10.84,0,.03,.01,.05,.02,.08,.18,1.04,2.29,11.59,19.94,17.03h0s0,0,0,0c0,0,0,0,0,0,0,0,0,0,0,0,0,0,0,0,0,0h0c14.24-11.76,12.18-22.32,11.95-23.35Z"/>
    </g>
  </g>
  <g>
    <circle class="cls-2" cx="622.81" cy="43.86" r="43.85"/>
    <g>
      <path class="cls-4" d="M603.25,23.83c.39-2.8,4.27-3.39,5.48-.83,0,.02,.02,.04,.02,.05,.8,1.76,1.32,3.57,1.6,5.41,.29,1.84,.33,3.72,.09,5.64,0,.03,0,.06-.01,.09-.39,2.8-4.27,3.39-5.48,.84-.01-.03-.02-.05-.04-.08-.8-1.76-1.32-3.57-1.59-5.41-.28-1.84-.32-3.72-.08-5.64,0-.02,0-.04,0-.06Z"/>
      <path class="cls-4" d="M630.02,19.75c.39-2.8,4.27-3.39,5.48-.83,0,.02,.02,.04,.02,.05,.8,1.76,1.32,3.57,1.6,5.41,.29,1.84,.33,3.72,.09,5.64,0,.03,0,.06-.01,.09-.39,2.8-4.27,3.39-5.48,.84-.01-.03-.02-.05-.04-.08-.8-1.76-1.32-3.57-1.59-5.41-.28-1.84-.32-3.72-.08-5.64,0-.02,0-.04,0-.06Z"/>
    </g>
    <g class="cls-7">
      <path class="cls-1" d="M586.23,52.79c-7.85-21.62,11.2-47.56,34.19-46.48-5.11,1.86-9.78,4.17-13.93,7.13-12.83,8.97-19.84,23.75-20.26,39.36h0Z"/>
    </g>
    <g>
      <path class="cls-6" d="M632.33,56.5c.22,1.41,.31,2.8,.28,4.12-.08,5.76-2.27,10.28-5.61,10.79s-6.78-3.15-8.55-8.63c-.42-1.25-.74-2.61-.96-4.02-1.16-7.61,1.21-14.28,5.31-14.91s8.36,5.03,9.52,12.64Z"/>
      <path class="cls-3" d="M632.61,60.62c-.08,5.76-2.27,10.28-5.61,10.79s-6.78-3.15-8.55-8.63c2.05-.94,4.39-1.64,6.92-2.02s5-.42,7.24-.13Z"/>
    </g>
  </g>
  <path class="cls-2" d="M652.05,242.99c4.94-.33,9.77-1.39,13.94-3.2-4.17-1.82-9-2.88-13.94-3.2-.33-4.94-1.39-9.77-3.2-13.94-1.81,4.17-2.88,9-3.2,13.94-4.94,.32-9.77,1.38-13.94,3.21,4.17,1.83,9,2.89,13.94,3.21,.32,4.94,1.38,9.77,3.21,13.94,1.83-4.17,2.89-9,3.21-13.94Z"/>
  <circle class="cls-2" cx="471.79" cy="256.93" r="13.32"/>
  <circle class="cls-3" cx="401.67" cy="78.3" r="13.32"/>
  <circle class="cls-5" cx="677.19" cy="115.88" r="14.48"/>
  <g>
    <g>
      <circle class="cls-2" cx="1227.06" cy="181.68" r="36.22"/>
      <g>
        <path class="cls-6" d="M1249.56,186.62c.69,.18,1.11,.91,.89,1.59-2.4,7.45-8.15,13.03-15.11,15.49-4.44,1.54-9.38,1.84-14.25,.56-4.87-1.28-9.02-3.98-12.1-7.53-4.87-5.56-7.11-13.23-5.52-20.91,.14-.7,.87-1.12,1.56-.94l44.53,11.74Z"/>
        <g>
          <path class="cls-4" d="M1218.81,160.08c1.22-1.99,4.35-1.17,4.43,1.17,0,.02,0,.03,0,.05,.02,1.6-.17,3.14-.56,4.63-.39,1.49-.97,2.93-1.78,4.31-.01,.02-.03,.04-.04,.06-1.22,1.99-4.35,1.17-4.43-1.17,0-.02,0-.05,0-.07-.02-1.6,.17-3.14,.57-4.62,.4-1.49,.98-2.92,1.79-4.3,0-.01,.02-.03,.03-.04Z"/>
          <path class="cls-4" d="M1240.44,165.78c1.22-1.99,4.35-1.17,4.43,1.17,0,.02,0,.03,0,.05,.02,1.6-.17,3.14-.56,4.63-.39,1.49-.97,2.93-1.78,4.31-.01,.02-.03,.04-.04,.06-1.22,1.99-4.35,1.17-4.43-1.17,0-.02,0-.05,0-.07-.02-1.6,.17-3.14,.57-4.62,.4-1.49,.98-2.92,1.79-4.3,0-.01,.02-.03,.03-.04Z"/>
        </g>
        <path class="cls-3" d="M1235.34,203.7s0,0,0,0c-4.44,1.54-9.38,1.84-14.25,.56-4.87-1.28-9.02-3.98-12.1-7.53,2.75-4.03,8.91-5.9,15.2-4.24,6.31,1.66,10.74,6.33,11.15,11.21Z"/>
      </g>
    </g>
    <g class="cls-7">
      <path class="cls-1" d="M1196.4,176.44c1.15-18.96,24.11-32.36,41.18-24-4.49-.27-8.78-.05-12.9,.82-12.67,2.59-22.84,11.48-28.28,23.17h0Z"/>
    </g>
  </g>
  <g>
    <circle class="cls-3" cx="1350.67" cy="205.07" r="32.48"/>
    <g class="cls-7">
      <path class="cls-1" d="M1323.33,208.92c-5.14-14.69,7.94-32.09,23.49-31.19-3.47,1.22-6.65,2.75-9.48,4.72-8.75,5.97-13.6,15.92-14.01,26.48h0Z"/>
    </g>
    <path class="cls-1" d="M1367.84,199.69s0-.06,0-.08c-.74-5.25-5.22-9.53-10.93-8.72-4.54,.64-6.71,4.27-7.18,7.45h0c-1.33-2.93-4.42-5.82-8.96-5.18-5.71,.8-8.83,6.15-8.09,11.4,0,.03,0,.06,.01,.08,.13,1.15,1.8,12.77,20.71,19.77h0s0,0,0,0c0,0,0,0,0,0,0,0,0,0,0,0,0,0,0,0,0,0h0c16.24-11.96,14.63-23.59,14.44-24.73Z"/>
  </g>
  <g>
    <circle class="cls-2" cx="1297.96" cy="141.74" r="55.08"/>
    <path class="cls-6" d="M1322.25,150.26c.67-.13,1.35,.32,1.44,1,1.07,7.46-1.56,14.72-6.55,19.79-3.2,3.21-7.35,5.55-12.1,6.5-4.76,.94-9.49,.35-13.65-1.42-6.56-2.76-11.74-8.46-13.6-15.78-.17-.67,.28-1.34,.96-1.47l43.5-8.62Z"/>
    <path class="cls-3" d="M1317.15,171.05s0,0,0,0c-3.2,3.21-7.35,5.55-12.1,6.5-4.76,.94-9.49,.35-13.65-1.42,.69-4.65,5.23-8.86,11.37-10.08s11.97,.95,14.38,5Z"/>
    <g class="cls-7">
      <path class="cls-1" d="M1252.56,154.99c-11.05-26.69,11.41-60.3,40.31-60.23-6.31,2.62-12.03,5.78-17.09,9.72-15.6,11.97-23.57,30.91-23.23,50.51h0Z"/>
    </g>
    <g>
      <path class="cls-3" d="M1288.36,124.84s0-.05-.01-.08c-.94-4.77-5.26-8.45-10.44-7.42-4.12,.82-5.92,4.25-6.19,7.18h0c-1.36-2.61-4.34-5.1-8.46-4.28-5.18,1.03-7.77,6.07-6.82,10.84,0,.03,.01,.05,.02,.08,.18,1.04,2.29,11.59,19.94,17.03h0s0,0,0,0c0,0,0,0,0,0,0,0,0,0,0,0,0,0,0,0,0,0h0c14.24-11.76,12.18-22.32,11.95-23.35Z"/>
      <path class="cls-3" d="M1332.3,116.14s0-.05-.01-.08c-.94-4.77-5.26-8.45-10.44-7.42-4.12,.82-5.92,4.25-6.19,7.18h0c-1.36-2.61-4.34-5.1-8.46-4.28-5.18,1.03-7.77,6.07-6.82,10.84,0,.03,.01,.05,.02,.08,.18,1.04,2.29,11.59,19.94,17.03h0s0,0,0,0c0,0,0,0,0,0,0,0,0,0,0,0,0,0,0,0,0,0h0c14.24-11.76,12.18-22.32,11.95-23.35Z"/>
    </g>
  </g>
  <g>
    <circle class="cls-2" cx="1399.25" cy="47.16" r="43.85"/>
    <g>
      <path class="cls-4" d="M1379.69,27.14c.39-2.8,4.27-3.39,5.48-.83,0,.02,.02,.04,.02,.05,.8,1.76,1.32,3.57,1.6,5.41,.29,1.84,.33,3.72,.09,5.64,0,.03,0,.06-.01,.09-.39,2.8-4.27,3.39-5.48,.84-.01-.03-.02-.05-.04-.08-.8-1.76-1.32-3.57-1.59-5.41-.28-1.84-.32-3.72-.08-5.64,0-.02,0-.04,0-.06Z"/>
      <path class="cls-4" d="M1406.46,23.06c.39-2.8,4.27-3.39,5.48-.83,0,.02,.02,.04,.02,.05,.8,1.76,1.32,3.57,1.6,5.41,.29,1.84,.33,3.72,.09,5.64,0,.03,0,.06-.01,.09-.39,2.8-4.27,3.39-5.48,.84-.01-.03-.02-.05-.04-.08-.8-1.76-1.32-3.57-1.59-5.41-.28-1.84-.32-3.72-.08-5.64,0-.02,0-.04,0-.06Z"/>
    </g>
    <g class="cls-7">
      <path class="cls-1" d="M1362.67,56.1c-7.85-21.62,11.2-47.56,34.19-46.48-5.11,1.86-9.78,4.17-13.93,7.13-12.83,8.97-19.84,23.75-20.26,39.36h0Z"/>
    </g>
    <g>
      <path class="cls-6" d="M1408.77,59.81c.22,1.41,.31,2.8,.28,4.12-.08,5.76-2.27,10.28-5.61,10.79s-6.78-3.15-8.55-8.63c-.42-1.25-.74-2.61-.96-4.02-1.16-7.61,1.21-14.28,5.31-14.91s8.36,5.03,9.52,12.64Z"/>
      <path class="cls-3" d="M1409.05,63.93c-.08,5.76-2.27,10.28-5.61,10.79s-6.78-3.15-8.55-8.63c2.05-.94,4.39-1.64,6.92-2.02s5-.42,7.24-.13Z"/>
    </g>
  </g>
  <path class="cls-2" d="M1428.49,246.3c4.94-.33,9.77-1.39,13.94-3.2-4.17-1.82-9-2.88-13.94-3.2-.33-4.94-1.39-9.77-3.2-13.94-1.81,4.17-2.88,9-3.2,13.94-4.94,.32-9.77,1.38-13.94,3.21,4.17,1.83,9,2.89,13.94,3.21,.32,4.94,1.38,9.77,3.21,13.94,1.83-4.17,2.89-9,3.21-13.94Z"/>
  <circle class="cls-2" cx="1248.23" cy="260.24" r="13.32"/>
  <circle class="cls-3" cx="1178.11" cy="81.61" r="13.32"/>
  <circle class="cls-5" cx="1453.63" cy="119.19" r="14.48"/>
  <g>
    <g>
      <circle class="cls-2" cx="1721.73" cy="1137.09" r="36.22"/>
      <g>
        <path class="cls-6" d="M1744.24,1142.03c.69,.18,1.11,.91,.89,1.59-2.4,7.45-8.15,13.03-15.11,15.49-4.44,1.54-9.38,1.84-14.25,.56-4.87-1.28-9.02-3.98-12.1-7.53-4.87-5.56-7.11-13.23-5.52-20.91,.14-.7,.87-1.12,1.56-.94l44.53,11.74Z"/>
        <g>
          <path class="cls-4" d="M1713.48,1115.49c1.22-1.99,4.35-1.17,4.43,1.17,0,.02,0,.03,0,.05,.02,1.6-.17,3.14-.56,4.63-.39,1.49-.97,2.93-1.78,4.31-.01,.02-.03,.04-.04,.06-1.22,1.99-4.35,1.17-4.43-1.17,0-.02,0-.05,0-.07-.02-1.6,.17-3.14,.57-4.62,.4-1.49,.98-2.92,1.79-4.3,0-.01,.02-.03,.03-.04Z"/>
          <path class="cls-4" d="M1735.12,1121.19c1.22-1.99,4.35-1.17,4.43,1.17,0,.02,0,.03,0,.05,.02,1.6-.17,3.14-.56,4.63-.39,1.49-.97,2.93-1.78,4.31-.01,.02-.03,.04-.04,.06-1.22,1.99-4.35,1.17-4.43-1.17,0-.02,0-.05,0-.07-.02-1.6,.17-3.14,.57-4.62,.4-1.49,.98-2.92,1.79-4.3,0-.01,.02-.03,.03-.04Z"/>
        </g>
        <path class="cls-3" d="M1730.02,1159.11s0,0,0,0c-4.44,1.54-9.38,1.84-14.25,.56-4.87-1.28-9.02-3.98-12.1-7.53,2.75-4.03,8.91-5.9,15.2-4.24,6.31,1.66,10.74,6.33,11.15,11.21Z"/>
      </g>
    </g>
    <g class="cls-7">
      <path class="cls-1" d="M1691.07,1131.85c1.15-18.96,24.11-32.36,41.18-24-4.49-.27-8.78-.05-12.9,.82-12.67,2.59-22.84,11.48-28.28,23.17h0Z"/>
    </g>
  </g>
  <g>
    <circle class="cls-3" cx="1845.34" cy="1160.48" r="32.48"/>
    <g class="cls-7">
      <path class="cls-1" d="M1818.01,1164.33c-5.14-14.69,7.94-32.09,23.49-31.19-3.47,1.22-6.65,2.75-9.48,4.72-8.75,5.97-13.6,15.92-14.01,26.48h0Z"/>
    </g>
    <path class="cls-1" d="M1862.51,1155.1s0-.06,0-.08c-.74-5.25-5.22-9.53-10.93-8.72-4.54,.64-6.71,4.27-7.18,7.45h0c-1.33-2.93-4.42-5.82-8.96-5.18-5.71,.8-8.83,6.15-8.09,11.4,0,.03,0,.06,.01,.08,.13,1.15,1.8,12.77,20.71,19.77h0s0,0,0,0c0,0,0,0,0,0,0,0,0,0,0,0,0,0,0,0,0,0h0c16.24-11.96,14.63-23.59,14.44-24.73Z"/>
  </g>
  <g>
    <circle class="cls-2" cx="1792.64" cy="1097.15" r="55.08"/>
    <path class="cls-6" d="M1816.93,1105.67c.67-.13,1.35,.32,1.44,1,1.07,7.46-1.56,14.72-6.55,19.79-3.2,3.21-7.35,5.55-12.1,6.5-4.76,.94-9.49,.35-13.65-1.42-6.56-2.76-11.74-8.46-13.6-15.78-.17-.67,.28-1.34,.96-1.47l43.5-8.62Z"/>
    <path class="cls-3" d="M1811.82,1126.46s0,0,0,0c-3.2,3.21-7.35,5.55-12.1,6.5-4.76,.94-9.49,.35-13.65-1.42,.69-4.65,5.23-8.86,11.37-10.08s11.97,.95,14.38,5Z"/>
    <g class="cls-7">
      <path class="cls-1" d="M1747.23,1110.4c-11.05-26.69,11.41-60.3,40.31-60.23-6.31,2.62-12.03,5.78-17.09,9.72-15.6,11.97-23.57,30.91-23.23,50.51h0Z"/>
    </g>
    <g>
      <path class="cls-3" d="M1783.03,1080.25s0-.05-.01-.08c-.94-4.77-5.26-8.45-10.44-7.42-4.12,.82-5.92,4.25-6.19,7.18h0c-1.36-2.61-4.34-5.1-8.46-4.28-5.18,1.03-7.77,6.07-6.82,10.84,0,.03,.01,.05,.02,.08,.18,1.04,2.29,11.59,19.94,17.03h0s0,0,0,0c0,0,0,0,0,0,0,0,0,0,0,0,0,0,0,0,0,0h0c14.24-11.76,12.18-22.32,11.95-23.35Z"/>
      <path class="cls-3" d="M1826.97,1071.55s0-.05-.01-.08c-.94-4.77-5.26-8.45-10.44-7.42-4.12,.82-5.92,4.25-6.19,7.18h0c-1.36-2.61-4.34-5.1-8.46-4.28-5.18,1.03-7.77,6.07-6.82,10.84,0,.03,.01,.05,.02,.08,.18,1.04,2.29,11.59,19.94,17.03h0s0,0,0,0c0,0,0,0,0,0,0,0,0,0,0,0,0,0,0,0,0,0h0c14.24-11.76,12.18-22.32,11.95-23.35Z"/>
    </g>
  </g>
  <g>
    <circle class="cls-2" cx="1893.92" cy="1002.57" r="43.85"/>
    <g>
      <path class="cls-4" d="M1874.36,982.55c.39-2.8,4.27-3.39,5.48-.83,0,.02,.02,.04,.02,.05,.8,1.76,1.32,3.57,1.6,5.41,.29,1.84,.33,3.72,.09,5.64,0,.03,0,.06-.01,.09-.39,2.8-4.27,3.39-5.48,.84-.01-.03-.02-.05-.04-.08-.8-1.76-1.32-3.57-1.59-5.41-.28-1.84-.32-3.72-.08-5.64,0-.02,0-.04,0-.06Z"/>
      <path class="cls-4" d="M1901.14,978.47c.39-2.8,4.27-3.39,5.48-.83,0,.02,.02,.04,.02,.05,.8,1.76,1.32,3.57,1.6,5.41,.29,1.84,.33,3.72,.09,5.64,0,.03,0,.06-.01,.09-.39,2.8-4.27,3.39-5.48,.84-.01-.03-.02-.05-.04-.08-.8-1.76-1.32-3.57-1.59-5.41-.28-1.84-.32-3.72-.08-5.64,0-.02,0-.04,0-.06Z"/>
    </g>
    <g class="cls-7">
      <path class="cls-1" d="M1857.34,1011.51c-7.85-21.62,11.2-47.56,34.19-46.48-5.11,1.86-9.78,4.17-13.93,7.13-12.83,8.97-19.84,23.75-20.26,39.36h0Z"/>
    </g>
    <g>
      <path class="cls-6" d="M1903.44,1015.22c.22,1.41,.31,2.8,.28,4.12-.08,5.76-2.27,10.28-5.61,10.79s-6.78-3.15-8.55-8.63c-.42-1.25-.74-2.61-.96-4.02-1.16-7.61,1.21-14.28,5.31-14.91s8.36,5.03,9.52,12.64Z"/>
      <path class="cls-3" d="M1903.73,1019.34c-.08,5.76-2.27,10.28-5.61,10.79s-6.78-3.15-8.55-8.63c2.05-.94,4.39-1.64,6.92-2.02s5-.42,7.24-.13Z"/>
    </g>
  </g>
  <path class="cls-2" d="M1923.16,1201.71c4.94-.33,9.77-1.39,13.94-3.2-4.17-1.82-9-2.88-13.94-3.2-.33-4.94-1.39-9.77-3.2-13.94-1.81,4.17-2.88,9-3.2,13.94-4.94,.32-9.77,1.38-13.94,3.21,4.17,1.83,9,2.89,13.94,3.21,.32,4.94,1.38,9.77,3.21,13.94,1.83-4.17,2.89-9,3.21-13.94Z"/>
  <circle class="cls-2" cx="1742.9" cy="1215.65" r="13.32"/>
  <g>
    <g>
      <circle class="cls-2" cx="805.56" cy="222.85" r="36.22"/>
      <g>
        <path class="cls-6" d="M828.06,227.79c.69,.18,1.11,.91,.89,1.59-2.4,7.45-8.15,13.03-15.11,15.49-4.44,1.54-9.38,1.84-14.25,.56-4.87-1.28-9.02-3.98-12.1-7.53-4.87-5.56-7.11-13.23-5.52-20.91,.14-.7,.87-1.12,1.56-.94l44.53,11.74Z"/>
        <g>
          <path class="cls-4" d="M797.31,201.25c1.22-1.99,4.35-1.17,4.43,1.17,0,.02,0,.03,0,.05,.02,1.6-.17,3.14-.56,4.63-.39,1.49-.97,2.93-1.78,4.31-.01,.02-.03,.04-.04,.06-1.22,1.99-4.35,1.17-4.43-1.17,0-.02,0-.05,0-.07-.02-1.6,.17-3.14,.57-4.62,.4-1.49,.98-2.92,1.79-4.3,0-.01,.02-.03,.03-.04Z"/>
          <path class="cls-4" d="M818.94,206.95c1.22-1.99,4.35-1.17,4.43,1.17,0,.02,0,.03,0,.05,.02,1.6-.17,3.14-.56,4.63-.39,1.49-.97,2.93-1.78,4.31-.01,.02-.03,.04-.04,.06-1.22,1.99-4.35,1.17-4.43-1.17,0-.02,0-.05,0-.07-.02-1.6,.17-3.14,.57-4.62,.4-1.49,.98-2.92,1.79-4.3,0-.01,.02-.03,.03-.04Z"/>
        </g>
        <path class="cls-3" d="M813.84,244.87s0,0,0,0c-4.44,1.54-9.38,1.84-14.25,.56-4.87-1.28-9.02-3.98-12.1-7.53,2.75-4.03,8.91-5.9,15.2-4.24,6.31,1.66,10.74,6.33,11.15,11.21Z"/>
      </g>
    </g>
    <g class="cls-7">
      <path class="cls-1" d="M774.9,217.6c1.15-18.96,24.11-32.36,41.18-24-4.49-.27-8.78-.05-12.9,.82-12.67,2.59-22.84,11.48-28.28,23.17h0Z"/>
    </g>
  </g>
  <g>
    <circle class="cls-3" cx="929.17" cy="246.24" r="32.48"/>
    <g class="cls-7">
      <path class="cls-1" d="M901.83,250.09c-5.14-14.69,7.94-32.09,23.49-31.19-3.47,1.22-6.65,2.75-9.48,4.72-8.75,5.97-13.6,15.92-14.01,26.48h0Z"/>
    </g>
    <path class="cls-1" d="M946.34,240.85s0-.06,0-.08c-.74-5.25-5.22-9.53-10.93-8.72-4.54,.64-6.71,4.27-7.18,7.45h0c-1.33-2.93-4.42-5.82-8.96-5.18-5.71,.8-8.83,6.15-8.09,11.4,0,.03,0,.06,.01,.08,.13,1.15,1.8,12.77,20.71,19.77h0s0,0,0,0c0,0,0,0,0,0,0,0,0,0,0,0,0,0,0,0,0,0h0c16.24-11.96,14.63-23.59,14.44-24.73Z"/>
  </g>
  <g>
    <circle class="cls-2" cx="876.46" cy="182.91" r="55.08"/>
    <path class="cls-6" d="M900.75,191.43c.67-.13,1.35,.32,1.44,1,1.07,7.46-1.56,14.72-6.55,19.79-3.2,3.21-7.35,5.55-12.1,6.5-4.76,.94-9.49,.35-13.65-1.42-6.56-2.76-11.74-8.46-13.6-15.78-.17-.67,.28-1.34,.96-1.47l43.5-8.62Z"/>
    <path class="cls-3" d="M895.65,212.22s0,0,0,0c-3.2,3.21-7.35,5.55-12.1,6.5-4.76,.94-9.49,.35-13.65-1.42,.69-4.65,5.23-8.86,11.37-10.08s11.97,.95,14.38,5Z"/>
    <g class="cls-7">
      <path class="cls-1" d="M831.06,196.16c-11.05-26.69,11.41-60.3,40.31-60.23-6.31,2.62-12.03,5.78-17.09,9.72-15.6,11.97-23.57,30.91-23.23,50.51h0Z"/>
    </g>
    <g>
      <path class="cls-3" d="M866.86,166.01s0-.05-.01-.08c-.94-4.77-5.26-8.45-10.44-7.42-4.12,.82-5.92,4.25-6.19,7.18h0c-1.36-2.61-4.34-5.1-8.46-4.28-5.18,1.03-7.77,6.07-6.82,10.84,0,.03,.01,.05,.02,.08,.18,1.04,2.29,11.59,19.94,17.03h0s0,0,0,0c0,0,0,0,0,0,0,0,0,0,0,0,0,0,0,0,0,0h0c14.24-11.76,12.18-22.32,11.95-23.35Z"/>
      <path class="cls-3" d="M910.8,157.3s0-.05-.01-.08c-.94-4.77-5.26-8.45-10.44-7.42-4.12,.82-5.92,4.25-6.19,7.18h0c-1.36-2.61-4.34-5.1-8.46-4.28-5.18,1.03-7.77,6.07-6.82,10.84,0,.03,.01,.05,.02,.08,.18,1.04,2.29,11.59,19.94,17.03h0s0,0,0,0c0,0,0,0,0,0,0,0,0,0,0,0,0,0,0,0,0,0h0c14.24-11.76,12.18-22.32,11.95-23.35Z"/>
    </g>
  </g>
  <path class="cls-2" d="M1006.99,287.46c4.94-.33,9.77-1.39,13.94-3.2-4.17-1.82-9-2.88-13.94-3.2-.33-4.94-1.39-9.77-3.2-13.94-1.81,4.17-2.88,9-3.2,13.94-4.94,.32-9.77,1.38-13.94,3.21,4.17,1.83,9,2.89,13.94,3.21,.32,4.94,1.38,9.77,3.21,13.94,1.83-4.17,2.89-9,3.21-13.94Z"/>
  <circle class="cls-2" cx="826.73" cy="301.41" r="13.32"/>
  <circle class="cls-3" cx="1672.79" cy="1037.02" r="13.32"/>
  <circle class="cls-5" cx="1948.31" cy="1074.6" r="14.48"/>
  <g>
    <circle class="cls-2" cx="751.16" cy="1138.75" r="55.08"/>
    <path class="cls-6" d="M761.44,1162.35c.56,.4,.68,1.2,.25,1.74-4.74,5.86-11.85,8.87-18.96,8.66-4.53-.16-9.07-1.6-13-4.45-3.93-2.85-6.72-6.71-8.25-10.97-2.44-6.69-1.79-14.36,2.31-20.7,.37-.58,1.17-.7,1.73-.3l35.91,26.02Z"/>
    <path class="cls-3" d="M742.73,1172.75s0,0,0,0c-4.53-.16-9.07-1.6-13-4.45-3.93-2.85-6.72-6.71-8.25-10.97,3.87-2.66,10.05-2.2,15.13,1.48s7.45,9.42,6.12,13.94Z"/>
    <g class="cls-7">
      <path class="cls-1" d="M710.56,1114.49c12.04-26.26,51.96-32.66,71.57-11.44-6.22-2.84-12.43-4.88-18.75-5.91-19.39-3.28-38.69,3.76-52.82,17.35h0Z"/>
    </g>
    <g>
      <path class="cls-3" d="M757.01,1120.21s.03-.04,.05-.06c2.85-3.93,2.61-9.6-1.66-12.7-3.4-2.46-7.14-1.45-9.47,.35h0c.98-2.77,.78-6.65-2.62-9.11-4.28-3.1-9.73-1.56-12.58,2.38-.02,.02-.03,.04-.04,.06-.64,.84-6.93,9.57,1.09,26.2h0s0,0,0,0c0,0,0,0,0,0,0,0,0,0,0,0,0,0,0,0,0,0h0c18.31,2.44,24.64-6.26,25.24-7.13Z"/>
      <path class="cls-3" d="M793.28,1146.49s.03-.04,.05-.06c2.85-3.93,2.61-9.6-1.66-12.7-3.4-2.46-7.14-1.45-9.47,.35h0c.98-2.77,.78-6.65-2.62-9.11-4.28-3.1-9.73-1.56-12.58,2.38-.02,.02-.03,.04-.04,.06-.64,.84-6.93,9.57,1.09,26.2h0s0,0,0,0c0,0,0,0,0,0,0,0,0,0,0,0,0,0,0,0,0,0h0c18.31,2.44,24.64-6.26,25.24-7.13Z"/>
    </g>
  </g>
  <g>
    <g>
      <circle class="cls-2" cx="953.34" cy="1207.44" r="36.22"/>
      <g>
        <path class="cls-6" d="M975.84,1212.38c.69,.18,1.11,.91,.89,1.59-2.4,7.45-8.15,13.03-15.11,15.49-4.44,1.54-9.38,1.84-14.25,.56-4.87-1.28-9.02-3.98-12.1-7.53-4.87-5.56-7.11-13.23-5.52-20.91,.14-.7,.87-1.12,1.56-.94l44.53,11.74Z"/>
        <g>
          <path class="cls-4" d="M945.09,1185.84c1.22-1.99,4.35-1.17,4.43,1.17,0,.02,0,.03,0,.05,.02,1.6-.17,3.14-.56,4.63-.39,1.49-.97,2.93-1.78,4.31-.01,.02-.03,.04-.04,.06-1.22,1.99-4.35,1.17-4.43-1.17,0-.02,0-.05,0-.07-.02-1.6,.17-3.14,.57-4.62,.4-1.49,.98-2.92,1.79-4.3,0-.01,.02-.03,.03-.04Z"/>
          <path class="cls-4" d="M966.72,1191.54c1.22-1.99,4.35-1.17,4.43,1.17,0,.02,0,.03,0,.05,.02,1.6-.17,3.14-.56,4.63-.39,1.49-.97,2.93-1.78,4.31-.01,.02-.03,.04-.04,.06-1.22,1.99-4.35,1.17-4.43-1.17,0-.02,0-.05,0-.07-.02-1.6,.17-3.14,.57-4.62,.4-1.49,.98-2.92,1.79-4.3,0-.01,.02-.03,.03-.04Z"/>
        </g>
        <path class="cls-3" d="M961.62,1229.46s0,0,0,0c-4.44,1.54-9.38,1.84-14.25,.56-4.87-1.28-9.02-3.98-12.1-7.53,2.75-4.03,8.91-5.9,15.2-4.24,6.31,1.66,10.74,6.33,11.15,11.21Z"/>
      </g>
    </g>
    <g class="cls-7">
      <path class="cls-1" d="M922.68,1202.2c1.15-18.96,24.11-32.36,41.18-24-4.49-.27-8.78-.05-12.9,.82-12.67,2.59-22.84,11.48-28.28,23.17h0Z"/>
    </g>
  </g>
  <g>
    <circle class="cls-3" cx="1076.95" cy="1230.83" r="32.48"/>
    <g class="cls-7">
      <path class="cls-1" d="M1049.61,1234.68c-5.14-14.69,7.94-32.09,23.49-31.19-3.47,1.22-6.65,2.75-9.48,4.72-8.75,5.97-13.6,15.92-14.01,26.48h0Z"/>
    </g>
    <path class="cls-1" d="M1094.12,1225.45s0-.06,0-.08c-.74-5.25-5.22-9.53-10.93-8.72-4.54,.64-6.71,4.27-7.18,7.45h0c-1.33-2.93-4.42-5.82-8.96-5.18-5.71,.8-8.83,6.15-8.09,11.4,0,.03,0,.06,.01,.08,.13,1.15,1.8,12.77,20.71,19.77h0s0,0,0,0c0,0,0,0,0,0,0,0,0,0,0,0,0,0,0,0,0,0h0c16.24-11.96,14.63-23.59,14.44-24.73Z"/>
  </g>
  <g>
    <circle class="cls-2" cx="1024.24" cy="1167.5" r="55.08"/>
    <path class="cls-6" d="M1048.53,1176.02c.67-.13,1.35,.32,1.44,1,1.07,7.46-1.56,14.72-6.55,19.79-3.2,3.21-7.35,5.55-12.1,6.5-4.76,.94-9.49,.35-13.65-1.42-6.56-2.76-11.74-8.46-13.6-15.78-.17-.67,.28-1.34,.96-1.47l43.5-8.62Z"/>
    <path class="cls-3" d="M1043.43,1196.81s0,0,0,0c-3.2,3.21-7.35,5.55-12.1,6.5-4.76,.94-9.49,.35-13.65-1.42,.69-4.65,5.23-8.86,11.37-10.08s11.97,.95,14.38,5Z"/>
    <g class="cls-7">
      <path class="cls-1" d="M978.84,1180.75c-11.05-26.69,11.41-60.3,40.31-60.23-6.31,2.62-12.03,5.78-17.09,9.72-15.6,11.97-23.57,30.91-23.23,50.51h0Z"/>
    </g>
    <g>
      <path class="cls-3" d="M1014.64,1150.6s0-.05-.01-.08c-.94-4.77-5.26-8.45-10.44-7.42-4.12,.82-5.92,4.25-6.19,7.18h0c-1.36-2.61-4.34-5.1-8.46-4.28-5.18,1.03-7.77,6.07-6.82,10.84,0,.03,.01,.05,.02,.08,.18,1.04,2.29,11.59,19.94,17.03h0s0,0,0,0c0,0,0,0,0,0,0,0,0,0,0,0,0,0,0,0,0,0h0c14.24-11.76,12.18-22.32,11.95-23.35Z"/>
      <path class="cls-3" d="M1058.58,1141.9s0-.05-.01-.08c-.94-4.77-5.26-8.45-10.44-7.42-4.12,.82-5.92,4.25-6.19,7.18h0c-1.36-2.61-4.34-5.1-8.46-4.28-5.18,1.03-7.77,6.07-6.82,10.84,0,.03,.01,.05,.02,.08,.18,1.04,2.29,11.59,19.94,17.03h0s0,0,0,0c0,0,0,0,0,0,0,0,0,0,0,0,0,0,0,0,0,0h0c14.24-11.76,12.18-22.32,11.95-23.35Z"/>
    </g>
  </g>
  <g>
    <circle class="cls-2" cx="1345.28" cy="1150.63" r="43.85"/>
    <g>
      <path class="cls-4" d="M1325.72,1130.61c.39-2.8,4.27-3.39,5.48-.83,0,.02,.02,.04,.02,.05,.8,1.76,1.32,3.57,1.6,5.41,.29,1.84,.33,3.72,.09,5.64,0,.03,0,.06-.01,.09-.39,2.8-4.27,3.39-5.48,.84-.01-.03-.02-.05-.04-.08-.8-1.76-1.32-3.57-1.59-5.41-.28-1.84-.32-3.72-.08-5.64,0-.02,0-.04,0-.06Z"/>
      <path class="cls-4" d="M1352.49,1126.53c.39-2.8,4.27-3.39,5.48-.83,0,.02,.02,.04,.02,.05,.8,1.76,1.32,3.57,1.6,5.41,.29,1.84,.33,3.72,.09,5.64,0,.03,0,.06-.01,.09-.39,2.8-4.27,3.39-5.48,.84-.01-.03-.02-.05-.04-.08-.8-1.76-1.32-3.57-1.59-5.41-.28-1.84-.32-3.72-.08-5.64,0-.02,0-.04,0-.06Z"/>
    </g>
    <g class="cls-7">
      <path class="cls-1" d="M1308.7,1159.56c-7.85-21.62,11.2-47.56,34.19-46.48-5.11,1.86-9.78,4.17-13.93,7.13-12.83,8.97-19.84,23.75-20.26,39.36h0Z"/>
    </g>
    <g>
      <path class="cls-6" d="M1354.79,1163.28c.22,1.41,.31,2.8,.28,4.12-.08,5.76-2.27,10.28-5.61,10.79s-6.78-3.15-8.55-8.63c-.42-1.25-.74-2.61-.96-4.02-1.16-7.61,1.21-14.28,5.31-14.91s8.36,5.03,9.52,12.64Z"/>
      <path class="cls-3" d="M1355.08,1167.4c-.08,5.76-2.27,10.28-5.61,10.79s-6.78-3.15-8.55-8.63c2.05-.94,4.39-1.64,6.92-2.02s5-.42,7.24-.13Z"/>
    </g>
  </g>
  <circle class="cls-3" cx="904.39" cy="1107.37" r="13.32"/>
  <circle class="cls-5" cx="1179.91" cy="1144.95" r="14.48"/>
  <g>
    <g>
      <circle class="cls-2" cx="62.27" cy="1006.68" r="36.22"/>
      <g>
        <path class="cls-6" d="M84.77,1011.62c.69,.18,1.11,.91,.89,1.59-2.4,7.45-8.15,13.03-15.11,15.49-4.44,1.54-9.38,1.84-14.25,.56-4.87-1.28-9.02-3.98-12.1-7.53-4.87-5.56-7.11-13.23-5.52-20.91,.14-.7,.87-1.12,1.56-.94l44.53,11.74Z"/>
        <g>
          <path class="cls-4" d="M54.02,985.08c1.22-1.99,4.35-1.17,4.43,1.17,0,.02,0,.03,0,.05,.02,1.6-.17,3.14-.56,4.63-.39,1.49-.97,2.93-1.78,4.31-.01,.02-.03,.04-.04,.06-1.22,1.99-4.35,1.17-4.43-1.17,0-.02,0-.05,0-.07-.02-1.6,.17-3.14,.57-4.62,.4-1.49,.98-2.92,1.79-4.3,0-.01,.02-.03,.03-.04Z"/>
          <path class="cls-4" d="M75.65,990.78c1.22-1.99,4.35-1.17,4.43,1.17,0,.02,0,.03,0,.05,.02,1.6-.17,3.14-.56,4.63-.39,1.49-.97,2.93-1.78,4.31-.01,.02-.03,.04-.04,.06-1.22,1.99-4.35,1.17-4.43-1.17,0-.02,0-.05,0-.07-.02-1.6,.17-3.14,.57-4.62,.4-1.49,.98-2.92,1.79-4.3,0-.01,.02-.03,.03-.04Z"/>
        </g>
        <path class="cls-3" d="M70.55,1028.7s0,0,0,0c-4.44,1.54-9.38,1.84-14.25,.56-4.87-1.28-9.02-3.98-12.1-7.53,2.75-4.03,8.91-5.9,15.2-4.24,6.31,1.66,10.74,6.33,11.15,11.21Z"/>
      </g>
    </g>
    <g class="cls-7">
      <path class="cls-1" d="M31.61,1001.43c1.15-18.96,24.11-32.36,41.18-24-4.49-.27-8.78-.05-12.9,.82-12.67,2.59-22.84,11.48-28.28,23.17h0Z"/>
    </g>
  </g>
  <g>
    <circle class="cls-3" cx="185.88" cy="1030.07" r="32.48"/>
    <g class="cls-7">
      <path class="cls-1" d="M158.54,1033.92c-5.14-14.69,7.94-32.09,23.49-31.19-3.47,1.22-6.65,2.75-9.48,4.72-8.75,5.97-13.6,15.92-14.01,26.48h0Z"/>
    </g>
    <path class="cls-1" d="M203.05,1024.68s0-.06,0-.08c-.74-5.25-5.22-9.53-10.93-8.72-4.54,.64-6.71,4.27-7.18,7.45h0c-1.33-2.93-4.42-5.82-8.96-5.18-5.71,.8-8.83,6.15-8.09,11.4,0,.03,0,.06,.01,.08,.13,1.15,1.8,12.77,20.71,19.77h0s0,0,0,0c0,0,0,0,0,0,0,0,0,0,0,0,0,0,0,0,0,0h0c16.24-11.96,14.63-23.59,14.44-24.73Z"/>
  </g>
  <g>
    <circle class="cls-2" cx="133.17" cy="966.74" r="55.08"/>
    <path class="cls-6" d="M157.46,975.26c.67-.13,1.35,.32,1.44,1,1.07,7.46-1.56,14.72-6.55,19.79-3.2,3.21-7.35,5.55-12.1,6.5-4.76,.94-9.49,.35-13.65-1.42-6.56-2.76-11.74-8.46-13.6-15.78-.17-.67,.28-1.34,.96-1.47l43.5-8.62Z"/>
    <path class="cls-3" d="M152.36,996.05s0,0,0,0c-3.2,3.21-7.35,5.55-12.1,6.5-4.76,.94-9.49,.35-13.65-1.42,.69-4.65,5.23-8.86,11.37-10.08s11.97,.95,14.38,5Z"/>
    <g class="cls-7">
      <path class="cls-1" d="M87.77,979.99c-11.05-26.69,11.41-60.3,40.31-60.23-6.31,2.62-12.03,5.78-17.09,9.72-15.6,11.97-23.57,30.91-23.23,50.51h0Z"/>
    </g>
    <g>
      <path class="cls-3" d="M123.57,949.84s0-.05-.01-.08c-.94-4.77-5.26-8.45-10.44-7.42-4.12,.82-5.92,4.25-6.19,7.18h0c-1.36-2.61-4.34-5.1-8.46-4.28-5.18,1.03-7.77,6.07-6.82,10.84,0,.03,.01,.05,.02,.08,.18,1.04,2.29,11.59,19.94,17.03h0s0,0,0,0c0,0,0,0,0,0,0,0,0,0,0,0,0,0,0,0,0,0h0c14.24-11.76,12.18-22.32,11.95-23.35Z"/>
      <path class="cls-3" d="M167.51,941.14s0-.05-.01-.08c-.94-4.77-5.26-8.45-10.44-7.42-4.12,.82-5.92,4.25-6.19,7.18h0c-1.36-2.61-4.34-5.1-8.46-4.28-5.18,1.03-7.77,6.07-6.82,10.84,0,.03,.01,.05,.02,.08,.18,1.04,2.29,11.59,19.94,17.03h0s0,0,0,0c0,0,0,0,0,0,0,0,0,0,0,0,0,0,0,0,0,0h0c14.24-11.76,12.18-22.32,11.95-23.35Z"/>
    </g>
  </g>
  <g>
    <circle class="cls-2" cx="234.46" cy="872.16" r="43.85"/>
    <g>
      <path class="cls-4" d="M214.9,852.14c.39-2.8,4.27-3.39,5.48-.83,0,.02,.02,.04,.02,.05,.8,1.76,1.32,3.57,1.6,5.41,.29,1.84,.33,3.72,.09,5.64,0,.03,0,.06-.01,.09-.39,2.8-4.27,3.39-5.48,.84-.01-.03-.02-.05-.04-.08-.8-1.76-1.32-3.57-1.59-5.41-.28-1.84-.32-3.72-.08-5.64,0-.02,0-.04,0-.06Z"/>
      <path class="cls-4" d="M241.67,848.06c.39-2.8,4.27-3.39,5.48-.83,0,.02,.02,.04,.02,.05,.8,1.76,1.32,3.57,1.6,5.41,.29,1.84,.33,3.72,.09,5.64,0,.03,0,.06-.01,.09-.39,2.8-4.27,3.39-5.48,.84-.01-.03-.02-.05-.04-.08-.8-1.76-1.32-3.57-1.59-5.41-.28-1.84-.32-3.72-.08-5.64,0-.02,0-.04,0-.06Z"/>
    </g>
    <g class="cls-7">
      <path class="cls-1" d="M197.88,881.1c-7.85-21.62,11.2-47.56,34.19-46.48-5.11,1.86-9.78,4.17-13.93,7.13-12.83,8.97-19.84,23.75-20.26,39.36h0Z"/>
    </g>
    <g>
      <path class="cls-6" d="M243.98,884.81c.22,1.41,.31,2.8,.28,4.12-.08,5.76-2.27,10.28-5.61,10.79s-6.78-3.15-8.55-8.63c-.42-1.25-.74-2.61-.96-4.02-1.16-7.61,1.21-14.28,5.31-14.91s8.36,5.03,9.52,12.64Z"/>
      <path class="cls-3" d="M244.26,888.93c-.08,5.76-2.27,10.28-5.61,10.79s-6.78-3.15-8.55-8.63c2.05-.94,4.39-1.64,6.92-2.02s5-.42,7.24-.13Z"/>
    </g>
  </g>
  <path class="cls-2" d="M263.7,1071.29c4.94-.33,9.77-1.39,13.94-3.2-4.17-1.82-9-2.88-13.94-3.2-.33-4.94-1.39-9.77-3.2-13.94-1.81,4.17-2.88,9-3.2,13.94-4.94,.32-9.77,1.38-13.94,3.21,4.17,1.83,9,2.89,13.94,3.21,.32,4.94,1.38,9.77,3.21,13.94,1.83-4.17,2.89-9,3.21-13.94Z"/>
  <circle class="cls-2" cx="83.44" cy="1085.24" r="13.32"/>
  <circle class="cls-3" cx="13.33" cy="906.6" r="13.32"/>
  <circle class="cls-5" cx="288.84" cy="944.19" r="14.48"/>
  <circle class="cls-5" cx="1350.27" cy="783.51" r="14.48"/>
  <g>
    <circle class="cls-2" cx="530.37" cy="1212.63" r="55.08"/>
    <path class="cls-6" d="M554.67,1221.14c.67-.13,1.35,.32,1.44,1,1.07,7.46-1.56,14.72-6.55,19.79-3.2,3.21-7.35,5.55-12.1,6.5-4.76,.94-9.49,.35-13.65-1.42-6.56-2.76-11.74-8.46-13.6-15.78-.17-.67,.28-1.34,.96-1.47l43.5-8.62Z"/>
    <path class="cls-3" d="M549.56,1241.93s0,0,0,0c-3.2,3.21-7.35,5.55-12.1,6.5-4.76,.94-9.49,.35-13.65-1.42,.69-4.65,5.23-8.86,11.37-10.08,6.16-1.22,11.97,.95,14.38,5Z"/>
    <g class="cls-7">
      <path class="cls-1" d="M484.97,1225.87c-11.05-26.69,11.41-60.3,40.31-60.23-6.31,2.62-12.03,5.78-17.09,9.72-15.6,11.97-23.57,30.91-23.23,50.51h0Z"/>
    </g>
    <g>
      <path class="cls-3" d="M520.77,1195.72s0-.05-.01-.08c-.94-4.77-5.26-8.45-10.44-7.42-4.12,.82-5.92,4.25-6.19,7.18h0c-1.36-2.61-4.34-5.1-8.46-4.28-5.18,1.03-7.77,6.07-6.82,10.84,0,.03,.01,.05,.02,.08,.18,1.04,2.29,11.59,19.94,17.03h0s0,0,0,0c0,0,0,0,0,0,0,0,0,0,0,0,0,0,0,0,0,0h0c14.24-11.76,12.18-22.32,11.95-23.35Z"/>
      <path class="cls-3" d="M564.71,1187.02s0-.05-.01-.08c-.94-4.77-5.26-8.45-10.44-7.42-4.12,.82-5.92,4.25-6.19,7.18h0c-1.36-2.61-4.34-5.1-8.46-4.28-5.18,1.03-7.77,6.07-6.82,10.84,0,.03,.01,.05,.02,.08,.18,1.04,2.29,11.59,19.94,17.03h0s0,0,0,0c0,0,0,0,0,0,0,0,0,0,0,0,0,0,0,0,0,0h0c14.24-11.76,12.18-22.32,11.95-23.35Z"/>
    </g>
  </g>
  <g>
    <circle class="cls-5" cx="427.6" cy="1286.93" r="77.94"/>
    <g class="cls-7">
      <path class="cls-1" d="M360.66,1292.13c-8-40.08,32.42-80.56,72.52-72.52-9.48,1.9-18.29,4.72-26.39,8.79-24.94,12.33-41.21,36.42-46.13,63.73h0Z"/>
    </g>
    <g>
      <path class="cls-1" d="M464.39,1271.93h-11.08s-4.49,0-4.49,0h-8.56c-.61,0-1.08-.58-.91-1.17,.98-3.48,1.07-7.26,1.07-10.83,0-1.97,.09-4.21-.12-6.37-.22-2.19-.76-4.31-2.06-5.98-1.43-1.85-3.57-3.23-5.95-3.23-5.51,0-6.38,5.4-6.9,9.77-.6,5.1-.84,10.38-3.09,15.09-1.58,3.29-3.82,6.12-7.33,7.51-2.7,1.07-4.69,1.9-7.54,2.45-.44,.09-.76,.47-.76,.92v35.68c0,.52,.42,.94,.94,.94h9.87c.3,0,.58,.15,.75,.39,1.95,2.61,5.06,4.3,8.57,4.3h15.35s11.15,0,11.15,0h4.42c4.51,0,8.21-3.69,8.21-8.21h0c0-1.17-.28-2.27-.78-3.25-.2-.39-.1-.86,.24-1.13,1.67-1.33,2.75-4.38,2.75-6.67v-.94c0-1.17-.28-2.27-.78-3.25-.2-.39-.1-.86,.24-1.13,1.67-1.33,2.75-3.38,2.75-5.68v-.94c0-1.17-.28-2.27-.78-3.25-.2-.39-.1-.86,.24-1.13,1.67-1.33,2.75-3.38,2.75-5.68h0c0-4.51-3.69-8.21-8.21-8.21Z"/>
      <rect class="cls-1" x="382.61" y="1275.16" width="19.04" height="45.21" rx="1.04" ry="1.04"/>
    </g>
  </g>
  <path class="cls-2" d="M518.07,1356.65c4.94-.33,9.77-1.39,13.94-3.2-4.17-1.82-9-2.88-13.94-3.2-.33-4.94-1.39-9.77-3.2-13.94-1.81,4.17-2.88,9-3.2,13.94-4.94,.32-9.77,1.38-13.94,3.21,4.17,1.83,9,2.89,13.94,3.21,.32,4.94,1.38,9.77,3.21,13.94,1.83-4.17,2.89-9,3.21-13.94Z"/>
  <path class="cls-2" d="M339.46,1291.95c5.75-.38,11.37-1.62,16.23-3.73-4.86-2.11-10.48-3.35-16.23-3.73-.38-5.75-1.62-11.38-3.73-16.23-2.11,4.86-3.35,10.48-3.73,16.23-5.76,.37-11.38,1.6-16.23,3.73,4.85,2.13,10.47,3.36,16.23,3.73,.37,5.75,1.6,11.37,3.73,16.23,2.13-4.86,3.36-10.48,3.73-16.23Z"/>
  <circle class="cls-5" cx="355.69" cy="1331.52" r="27.3"/>
  <circle class="cls-5" cx="129.16" cy="1176" r="14.48"/>
  <circle class="cls-3" cx="1466.81" cy="844.19" r="14.48"/>
  <circle class="cls-3" cx="777.89" cy="954.37" r="14.48"/>
  <circle class="cls-3" cx="435.14" cy="688.28" r="14.48"/>
  <circle class="cls-3" cx="440.67" cy="844.58" r="14.48"/>
  <g>
    <g>
      <circle class="cls-2" cx="312.16" cy="561.43" r="55.95"/>
      <g>
        <path class="cls-6" d="M346.93,569.06c1.06,.28,1.72,1.4,1.38,2.45-3.7,11.51-12.6,20.13-23.35,23.93-6.86,2.38-14.49,2.85-22.02,.87-7.52-1.98-13.93-6.15-18.69-11.63-7.52-8.59-10.99-20.44-8.52-32.3,.22-1.08,1.35-1.73,2.41-1.45l68.78,18.13Z"/>
        <g>
          <path class="cls-4" d="M299.42,528.06c1.88-3.08,6.72-1.8,6.84,1.8,0,.02,0,.05,0,.07,.04,2.47-.27,4.85-.87,7.15-.6,2.3-1.51,4.52-2.76,6.65-.02,.03-.04,.06-.06,.1-1.88,3.08-6.73,1.8-6.84-1.8,0-.04,0-.07,0-.11-.04-2.47,.27-4.85,.88-7.14,.61-2.3,1.52-4.52,2.77-6.65,.01-.02,.03-.04,.04-.06Z"/>
          <path class="cls-4" d="M332.83,536.87c1.88-3.08,6.72-1.8,6.84,1.8,0,.02,0,.05,0,.07,.04,2.47-.27,4.85-.87,7.15-.6,2.3-1.51,4.52-2.76,6.65-.02,.03-.04,.06-.06,.1-1.88,3.08-6.73,1.8-6.84-1.8,0-.04,0-.07,0-.11-.04-2.47,.27-4.85,.88-7.14,.61-2.3,1.52-4.52,2.77-6.65,.01-.02,.03-.04,.04-.06Z"/>
        </g>
        <path class="cls-3" d="M324.96,595.45s0,0,0,0c-6.86,2.38-14.49,2.85-22.02,.87-7.52-1.98-13.93-6.15-18.69-11.63,4.25-6.22,13.76-9.11,23.48-6.55,9.75,2.57,16.6,9.77,17.22,17.31Z"/>
      </g>
    </g>
    <g class="cls-7">
      <path class="cls-1" d="M264.8,553.33c1.78-29.29,37.25-49.99,63.61-37.07-6.93-.41-13.56-.07-19.93,1.27-19.57,3.99-35.28,17.74-43.69,35.8h0Z"/>
    </g>
  </g>
  <g>
    <circle class="cls-3" cx="199.68" cy="496.9" r="32.48"/>
    <g class="cls-7">
      <path class="cls-1" d="M172.34,500.75c-5.14-14.69,7.94-32.09,23.49-31.19-3.47,1.22-6.65,2.75-9.48,4.72-8.75,5.97-13.6,15.92-14.01,26.48h0Z"/>
    </g>
    <path class="cls-1" d="M216.85,491.52s0-.06,0-.08c-.74-5.25-5.22-9.53-10.93-8.72-4.54,.64-6.71,4.27-7.18,7.45h0c-1.33-2.93-4.42-5.82-8.96-5.18-5.71,.8-8.83,6.15-8.09,11.4,0,.03,0,.06,.01,.08,.13,1.15,1.8,12.77,20.71,19.77h0s0,0,0,0c0,0,0,0,0,0,0,0,0,0,0,0,0,0,0,0,0,0h0c16.24-11.96,14.63-23.59,14.44-24.73Z"/>
  </g>
  <g>
    <circle class="cls-3" cx="225.86" cy="219.02" r="32.48"/>
    <g class="cls-7">
      <path class="cls-1" d="M198.52,222.87c-5.14-14.69,7.94-32.09,23.49-31.19-3.47,1.22-6.65,2.75-9.48,4.72-8.75,5.97-13.6,15.92-14.01,26.48h0Z"/>
    </g>
    <path class="cls-1" d="M243.03,213.64s0-.06,0-.08c-.74-5.25-5.22-9.53-10.93-8.72-4.54,.64-6.71,4.27-7.18,7.45h0c-1.33-2.93-4.42-5.82-8.96-5.18-5.71,.8-8.83,6.15-8.09,11.4,0,.03,0,.06,.01,.08,.13,1.15,1.8,12.77,20.71,19.77h0s0,0,0,0c0,0,0,0,0,0,0,0,0,0,0,0,0,0,0,0,0,0h0c16.24-11.96,14.63-23.59,14.44-24.73Z"/>
  </g>
  <g>
    <circle class="cls-2" cx="193.37" cy="295.84" r="55.08"/>
    <path class="cls-6" d="M217.67,304.36c.67-.13,1.35,.32,1.44,1,1.07,7.46-1.56,14.72-6.55,19.79-3.2,3.21-7.35,5.55-12.1,6.5-4.76,.94-9.49,.35-13.65-1.42-6.56-2.76-11.74-8.46-13.6-15.78-.17-.67,.28-1.34,.96-1.47l43.5-8.62Z"/>
    <path class="cls-3" d="M212.56,325.15s0,0,0,0c-3.2,3.21-7.35,5.55-12.1,6.5-4.76,.94-9.49,.35-13.65-1.42,.69-4.65,5.23-8.86,11.37-10.08,6.16-1.22,11.97,.95,14.38,5Z"/>
    <g class="cls-7">
      <path class="cls-1" d="M147.97,309.08c-11.05-26.69,11.41-60.3,40.31-60.23-6.31,2.62-12.03,5.78-17.09,9.72-15.6,11.97-23.57,30.91-23.23,50.51h0Z"/>
    </g>
    <g>
      <path class="cls-3" d="M183.77,278.94s0-.05-.01-.08c-.94-4.77-5.26-8.45-10.44-7.42-4.12,.82-5.92,4.25-6.19,7.18h0c-1.36-2.61-4.34-5.1-8.46-4.28-5.18,1.03-7.77,6.07-6.82,10.84,0,.03,.01,.05,.02,.08,.18,1.04,2.29,11.59,19.94,17.03h0s0,0,0,0c0,0,0,0,0,0,0,0,0,0,0,0,0,0,0,0,0,0h0c14.24-11.76,12.18-22.32,11.95-23.35Z"/>
      <path class="cls-3" d="M227.71,270.23s0-.05-.01-.08c-.94-4.77-5.26-8.45-10.44-7.42-4.12,.82-5.92,4.25-6.19,7.18h0c-1.36-2.61-4.34-5.1-8.46-4.28-5.18,1.03-7.77,6.07-6.82,10.84,0,.03,.01,.05,.02,.08,.18,1.04,2.29,11.59,19.94,17.03h0s0,0,0,0c0,0,0,0,0,0,0,0,0,0,0,0,0,0,0,0,0,0h0c14.24-11.76,12.18-22.32,11.95-23.35Z"/>
    </g>
  </g>
  <g>
    <circle class="cls-5" cx="100.41" cy="522.09" r="18.83"/>
    <g class="cls-7">
      <path class="cls-1" d="M84.24,523.34c-1.93-9.68,7.83-19.46,17.52-17.52-2.29,.46-4.42,1.14-6.38,2.12-6.03,2.98-9.96,8.8-11.15,15.4h0Z"/>
    </g>
    <g>
      <path class="cls-1" d="M109.3,518.46h-2.68s-1.09,0-1.09,0h-2.07c-.15,0-.26-.14-.22-.28,.24-.84,.26-1.75,.26-2.62,0-.48,.02-1.02-.03-1.54-.05-.53-.18-1.04-.5-1.44-.35-.45-.86-.78-1.44-.78-1.33,0-1.54,1.3-1.67,2.36-.14,1.23-.2,2.51-.75,3.65-.38,.8-.92,1.48-1.77,1.81-.65,.26-1.13,.46-1.82,.59-.11,.02-.18,.11-.18,.22v8.62c0,.13,.1,.23,.23,.23h2.38c.07,0,.14,.04,.18,.09,.47,.63,1.22,1.04,2.07,1.04h3.71s2.69,0,2.69,0h1.07c1.09,0,1.98-.89,1.98-1.98h0c0-.28-.07-.55-.19-.79-.05-.09-.02-.21,.06-.27,.4-.32,.67-1.06,.67-1.61v-.23c0-.28-.07-.55-.19-.79-.05-.09-.02-.21,.06-.27,.4-.32,.67-.82,.67-1.37v-.23c0-.28-.07-.55-.19-.79-.05-.09-.02-.21,.06-.27,.4-.32,.67-.82,.67-1.37h0c0-1.09-.89-1.98-1.98-1.98Z"/>
      <rect class="cls-1" x="89.54" y="519.24" width="4.6" height="10.92" rx=".51" ry=".51"/>
    </g>
  </g>
  <g>
    <circle class="cls-5" cx="121.34" cy="735.56" r="77.94"/>
    <g class="cls-7">
      <path class="cls-1" d="M54.4,740.76c-8-40.08,32.42-80.56,72.52-72.52-9.48,1.9-18.29,4.72-26.39,8.79-24.94,12.33-41.21,36.42-46.13,63.73h0Z"/>
    </g>
    <g>
      <path class="cls-1" d="M158.13,720.56h-11.08s-4.49,0-4.49,0h-8.56c-.61,0-1.08-.58-.91-1.17,.98-3.48,1.07-7.26,1.07-10.83,0-1.97,.09-4.21-.12-6.37-.22-2.19-.76-4.31-2.06-5.98-1.43-1.85-3.57-3.23-5.95-3.23-5.51,0-6.38,5.4-6.9,9.77-.6,5.1-.84,10.38-3.09,15.09-1.58,3.29-3.82,6.12-7.33,7.51-2.7,1.07-4.69,1.9-7.54,2.45-.44,.09-.76,.47-.76,.92v35.68c0,.52,.42,.94,.94,.94h9.87c.3,0,.58,.15,.75,.39,1.95,2.61,5.06,4.3,8.57,4.3h15.35s11.15,0,11.15,0h4.42c4.51,0,8.21-3.69,8.21-8.21h0c0-1.17-.28-2.27-.78-3.25-.2-.39-.1-.86,.24-1.13,1.67-1.33,2.75-4.38,2.75-6.67v-.94c0-1.17-.28-2.27-.78-3.25-.2-.39-.1-.86,.24-1.13,1.67-1.33,2.75-3.38,2.75-5.68v-.94c0-1.17-.28-2.27-.78-3.25-.2-.39-.1-.86,.24-1.13,1.67-1.33,2.75-3.38,2.75-5.68h0c0-4.51-3.69-8.21-8.21-8.21Z"/>
      <rect class="cls-1" x="76.35" y="723.79" width="19.04" height="45.21" rx="1.04" ry="1.04"/>
    </g>
  </g>
  <g>
    <circle class="cls-2" cx="307.84" cy="705.45" r="69.58"/>
    <g>
      <path class="cls-4" d="M276.8,673.68c.62-4.44,6.78-5.38,8.69-1.32,.01,.03,.03,.06,.04,.08,1.26,2.8,2.09,5.66,2.54,8.58,.45,2.92,.52,5.9,.15,8.95,0,.05-.01,.09-.02,.14-.62,4.44-6.78,5.38-8.7,1.33-.02-.04-.04-.08-.06-.13-1.26-2.8-2.09-5.66-2.53-8.59-.44-2.92-.5-5.9-.13-8.95,0-.03,0-.06,.01-.09Z"/>
      <path class="cls-4" d="M319.29,667.2c.62-4.44,6.78-5.38,8.69-1.32,.01,.03,.03,.06,.04,.08,1.26,2.8,2.09,5.66,2.54,8.58,.45,2.92,.52,5.9,.15,8.95,0,.05-.01,.09-.02,.14-.62,4.44-6.78,5.38-8.7,1.33-.02-.04-.04-.08-.06-.13-1.26-2.8-2.09-5.66-2.53-8.59-.44-2.92-.5-5.9-.13-8.95,0-.03,0-.06,.01-.09Z"/>
    </g>
    <g class="cls-7">
      <path class="cls-1" d="M249.8,719.63c-12.45-34.3,17.78-75.46,54.25-73.76-8.11,2.96-15.51,6.62-22.11,11.31-20.35,14.24-31.48,37.69-32.14,62.45h0Z"/>
    </g>
    <g>
      <path class="cls-6" d="M322.94,725.52c.34,2.24,.5,4.45,.45,6.54-.12,9.14-3.6,16.31-8.9,17.12s-10.75-5-13.57-13.69c-.67-1.98-1.18-4.13-1.52-6.37-1.84-12.08,1.93-22.66,8.43-23.65,6.5-.99,13.27,7.98,15.11,20.06Z"/>
      <path class="cls-3" d="M323.39,732.05c-.12,9.14-3.6,16.31-8.9,17.12s-10.75-5-13.57-13.69c3.25-1.49,6.97-2.6,10.98-3.21,4.03-.61,7.93-.66,11.5-.21Z"/>
    </g>
  </g>
  <g>
    <circle class="cls-2" cx="326.96" cy="302.29" r="43.85"/>
    <g>
      <path class="cls-4" d="M307.4,282.26c.39-2.8,4.27-3.39,5.48-.83,0,.02,.02,.04,.02,.05,.8,1.76,1.32,3.57,1.6,5.41,.29,1.84,.33,3.72,.09,5.64,0,.03,0,.06-.01,.09-.39,2.8-4.27,3.39-5.48,.84-.01-.03-.02-.05-.04-.08-.8-1.76-1.32-3.57-1.59-5.41-.28-1.84-.32-3.72-.08-5.64,0-.02,0-.04,0-.06Z"/>
      <path class="cls-4" d="M334.18,278.18c.39-2.8,4.27-3.39,5.48-.83,0,.02,.02,.04,.02,.05,.8,1.76,1.32,3.57,1.6,5.41,.29,1.84,.33,3.72,.09,5.64,0,.03,0,.06-.01,.09-.39,2.8-4.27,3.39-5.48,.84-.01-.03-.02-.05-.04-.08-.8-1.76-1.32-3.57-1.59-5.41-.28-1.84-.32-3.72-.08-5.64,0-.02,0-.04,0-.06Z"/>
    </g>
    <g class="cls-7">
      <path class="cls-1" d="M290.38,311.22c-7.85-21.62,11.2-47.56,34.19-46.48-5.11,1.86-9.78,4.17-13.93,7.13-12.83,8.97-19.84,23.75-20.26,39.36h0Z"/>
    </g>
    <g>
      <path class="cls-6" d="M336.48,314.93c.22,1.41,.31,2.8,.28,4.12-.08,5.76-2.27,10.28-5.61,10.79-3.34,.51-6.78-3.15-8.55-8.63-.42-1.25-.74-2.61-.96-4.02-1.16-7.61,1.21-14.28,5.31-14.91,4.1-.62,8.36,5.03,9.52,12.64Z"/>
      <path class="cls-3" d="M336.76,319.05c-.08,5.76-2.27,10.28-5.61,10.79-3.34,.51-6.78-3.15-8.55-8.63,2.05-.94,4.39-1.64,6.92-2.02,2.54-.39,5-.42,7.24-.13Z"/>
    </g>
  </g>
  <g>
    <circle class="cls-2" cx="238.25" cy="51.37" r="43.85"/>
    <g>
      <path class="cls-4" d="M239.79,23.42c2.33-1.6,5.39,.86,4.32,3.47,0,.02-.01,.04-.02,.05-.76,1.78-1.74,3.38-2.9,4.84-1.16,1.46-2.52,2.75-4.1,3.88-.02,.02-.05,.03-.07,.05-2.33,1.61-5.39-.86-4.32-3.47,.01-.03,.02-.05,.03-.08,.76-1.78,1.74-3.38,2.91-4.83,1.17-1.45,2.53-2.75,4.1-3.87,.02-.01,.03-.02,.05-.03Z"/>
      <path class="cls-4" d="M260.9,40.4c2.33-1.6,5.39,.86,4.32,3.47,0,.02-.01,.04-.02,.05-.76,1.78-1.74,3.38-2.9,4.84-1.16,1.46-2.52,2.75-4.1,3.88-.02,.02-.05,.03-.07,.05-2.33,1.61-5.39-.86-4.32-3.47,.01-.03,.02-.05,.03-.08,.76-1.78,1.74-3.38,2.91-4.83,1.17-1.45,2.53-2.75,4.1-3.87,.02-.01,.03-.02,.05-.03Z"/>
    </g>
    <g class="cls-7">
      <path class="cls-1" d="M206.95,30.45c10.63-20.39,42.62-23.89,57.37-6.22-4.83-2.51-9.68-4.38-14.67-5.45-15.28-3.39-30.91,1.43-42.7,11.67h0Z"/>
    </g>
    <g>
      <path class="cls-6" d="M235.37,66.93c-.9,1.11-1.85,2.12-2.84,2.99-4.3,3.84-9.11,5.27-11.74,3.16-2.63-2.12-2.26-7.12,.58-12.14,.64-1.15,1.42-2.31,2.31-3.42,4.83-6,11.35-8.76,14.58-6.16,3.23,2.6,1.95,9.56-2.88,15.57Z"/>
      <path class="cls-3" d="M232.52,69.93c-4.3,3.84-9.11,5.27-11.74,3.16-2.63-2.12-2.26-7.12,.58-12.14,2.08,.88,4.18,2.13,6.17,3.73,2,1.61,3.69,3.4,5,5.25Z"/>
    </g>
  </g>
  <path class="cls-2" d="M268.57,390.62c4.94-.33,9.77-1.39,13.94-3.2-4.17-1.82-9-2.88-13.94-3.2-.33-4.94-1.39-9.77-3.2-13.94-1.81,4.17-2.88,9-3.2,13.94-4.94,.32-9.77,1.38-13.94,3.21,4.17,1.83,9,2.89,13.94,3.21,.32,4.94,1.38,9.77,3.21,13.94,1.83-4.17,2.89-9,3.21-13.94Z"/>
  <path class="cls-2" d="M317.41,126.17c4.94-.33,9.77-1.39,13.94-3.2-4.17-1.82-9-2.88-13.94-3.2-.33-4.94-1.39-9.77-3.2-13.94-1.81,4.17-2.88,9-3.2,13.94-4.94,.32-9.77,1.38-13.94,3.21,4.17,1.83,9,2.89,13.94,3.21,.32,4.94,1.38,9.77,3.21,13.94,1.83-4.17,2.89-9,3.21-13.94Z"/>
  <path class="cls-2" d="M210.96,617.65c4.94-.33,9.77-1.39,13.94-3.2-4.17-1.82-9-2.88-13.94-3.2-.33-4.94-1.39-9.77-3.2-13.94-1.81,4.17-2.88,9-3.2,13.94-4.94,.32-9.77,1.38-13.94,3.21,4.17,1.83,9,2.89,13.94,3.21,.32,4.94,1.38,9.77,3.21,13.94,1.83-4.17,2.89-9,3.21-13.94Z"/>
  <path class="cls-2" d="M114.49,236.4c4.94-.33,9.77-1.39,13.94-3.2-4.17-1.82-9-2.88-13.94-3.2-.33-4.94-1.39-9.77-3.2-13.94-1.81,4.17-2.88,9-3.2,13.94-4.94,.32-9.77,1.38-13.94,3.21,4.17,1.83,9,2.89,13.94,3.21,.32,4.94,1.38,9.77,3.21,13.94,1.83-4.17,2.89-9,3.21-13.94Z"/>
  <circle class="cls-2" cx="162.13" cy="115.58" r="14.48"/>
  <circle class="cls-2" cx="276.55" cy="77.97" r="14.48"/>
  <circle class="cls-3" cx="138.28" cy="405.53" r="14.48"/>
  <circle class="cls-3" cx="143.82" cy="561.82" r="14.48"/>
  <g>
    <g>
      <circle class="cls-2" cx="1834.82" cy="721.64" r="55.95"/>
      <g>
        <path class="cls-6" d="M1869.59,729.27c1.06,.28,1.72,1.4,1.38,2.45-3.7,11.51-12.6,20.13-23.35,23.93-6.86,2.38-14.49,2.85-22.02,.87-7.52-1.98-13.93-6.15-18.69-11.63-7.52-8.59-10.99-20.44-8.52-32.3,.22-1.08,1.35-1.73,2.41-1.45l68.78,18.13Z"/>
        <g>
          <path class="cls-4" d="M1822.08,688.27c1.88-3.08,6.72-1.8,6.84,1.8,0,.02,0,.05,0,.07,.04,2.47-.27,4.85-.87,7.15-.6,2.3-1.51,4.52-2.76,6.65-.02,.03-.04,.06-.06,.1-1.88,3.08-6.73,1.8-6.84-1.8,0-.04,0-.07,0-.11-.04-2.47,.27-4.85,.88-7.14,.61-2.3,1.52-4.52,2.77-6.65,.01-.02,.03-.04,.04-.06Z"/>
          <path class="cls-4" d="M1855.49,697.08c1.88-3.08,6.72-1.8,6.84,1.8,0,.02,0,.05,0,.07,.04,2.47-.27,4.85-.87,7.15-.6,2.3-1.51,4.52-2.76,6.65-.02,.03-.04,.06-.06,.1-1.88,3.08-6.73,1.8-6.84-1.8,0-.04,0-.07,0-.11-.04-2.47,.27-4.85,.88-7.14,.61-2.3,1.52-4.52,2.77-6.65,.01-.02,.03-.04,.04-.06Z"/>
        </g>
        <path class="cls-3" d="M1847.62,755.66s0,0,0,0c-6.86,2.38-14.49,2.85-22.02,.87-7.52-1.98-13.93-6.15-18.69-11.63,4.25-6.22,13.76-9.11,23.48-6.55,9.75,2.57,16.6,9.77,17.22,17.31Z"/>
      </g>
    </g>
    <g class="cls-7">
      <path class="cls-1" d="M1787.46,713.54c1.78-29.29,37.25-49.99,63.61-37.07-6.93-.41-13.56-.07-19.93,1.27-19.57,3.99-35.28,17.74-43.69,35.8h0Z"/>
    </g>
  </g>
  <g>
    <circle class="cls-3" cx="1722.34" cy="657.11" r="32.48"/>
    <g class="cls-7">
      <path class="cls-1" d="M1695,660.96c-5.14-14.69,7.94-32.09,23.49-31.19-3.47,1.22-6.65,2.75-9.48,4.72-8.75,5.97-13.6,15.92-14.01,26.48h0Z"/>
    </g>
    <path class="cls-1" d="M1739.51,651.73s0-.06,0-.08c-.74-5.25-5.22-9.53-10.93-8.72-4.54,.64-6.71,4.27-7.18,7.45h0c-1.33-2.93-4.42-5.82-8.96-5.18-5.71,.8-8.83,6.15-8.09,11.4,0,.03,0,.06,.01,.08,.13,1.15,1.8,12.77,20.71,19.77h0s0,0,0,0c0,0,0,0,0,0,0,0,0,0,0,0,0,0,0,0,0,0h0c16.24-11.96,14.63-23.59,14.44-24.73Z"/>
  </g>
  <g>
    <circle class="cls-3" cx="1974.7" cy="818.7" r="32.48"/>
    <g class="cls-7">
      <path class="cls-1" d="M1947.36,822.56c-5.14-14.69,7.94-32.09,23.49-31.19-3.47,1.22-6.65,2.75-9.48,4.72-8.75,5.97-13.6,15.92-14.01,26.48h0Z"/>
    </g>
    <path class="cls-1" d="M1991.87,813.32s0-.06,0-.08c-.74-5.25-5.22-9.53-10.93-8.72-4.54,.64-6.71,4.27-7.18,7.45h0c-1.33-2.93-4.42-5.82-8.96-5.18-5.71,.8-8.83,6.15-8.09,11.4,0,.03,0,.06,.01,.08,.13,1.15,1.8,12.77,20.71,19.77h0s0,0,0,0c0,0,0,0,0,0,0,0,0,0,0,0,0,0,0,0,0,0h0c16.24-11.96,14.63-23.59,14.44-24.73Z"/>
  </g>
  <g>
    <circle class="cls-3" cx="1566.2" cy="1188.93" r="32.48"/>
    <g class="cls-7">
      <path class="cls-1" d="M1538.86,1192.78c-5.14-14.69,7.94-32.09,23.49-31.19-3.47,1.22-6.65,2.75-9.48,4.72-8.75,5.97-13.6,15.92-14.01,26.48h0Z"/>
    </g>
    <path class="cls-1" d="M1583.37,1183.54s0-.06,0-.08c-.74-5.25-5.22-9.53-10.93-8.72-4.54,.64-6.71,4.27-7.18,7.45h0c-1.33-2.93-4.42-5.82-8.96-5.18-5.71,.8-8.83,6.15-8.09,11.4,0,.03,0,.06,.01,.08,.13,1.15,1.8,12.77,20.71,19.77h0s0,0,0,0c0,0,0,0,0,0,0,0,0,0,0,0,0,0,0,0,0,0h0c16.24-11.96,14.63-23.59,14.44-24.73Z"/>
  </g>
  <g>
    <circle class="cls-2" cx="1716.03" cy="456.05" r="55.08"/>
    <path class="cls-6" d="M1740.33,464.57c.67-.13,1.35,.32,1.44,1,1.07,7.46-1.56,14.72-6.55,19.79-3.2,3.21-7.35,5.55-12.1,6.5-4.76,.94-9.49,.35-13.65-1.42-6.56-2.76-11.74-8.46-13.6-15.78-.17-.67,.28-1.34,.96-1.47l43.5-8.62Z"/>
    <path class="cls-3" d="M1735.22,485.36s0,0,0,0c-3.2,3.21-7.35,5.55-12.1,6.5-4.76,.94-9.49,.35-13.65-1.42,.69-4.65,5.23-8.86,11.37-10.08,6.16-1.22,11.97,.95,14.38,5Z"/>
    <g class="cls-7">
      <path class="cls-1" d="M1670.63,469.29c-11.05-26.69,11.41-60.3,40.31-60.23-6.31,2.62-12.03,5.78-17.09,9.72-15.6,11.97-23.57,30.91-23.23,50.51h0Z"/>
    </g>
    <g>
      <path class="cls-3" d="M1706.43,439.15s0-.05-.01-.08c-.94-4.77-5.26-8.45-10.44-7.42-4.12,.82-5.92,4.25-6.19,7.18h0c-1.36-2.61-4.34-5.1-8.46-4.28-5.18,1.03-7.77,6.07-6.82,10.84,0,.03,.01,.05,.02,.08,.18,1.04,2.29,11.59,19.94,17.03h0s0,0,0,0c0,0,0,0,0,0,0,0,0,0,0,0,0,0,0,0,0,0h0c14.24-11.76,12.18-22.32,11.95-23.35Z"/>
      <path class="cls-3" d="M1750.37,430.44s0-.05-.01-.08c-.94-4.77-5.26-8.45-10.44-7.42-4.12,.82-5.92,4.25-6.19,7.18h0c-1.36-2.61-4.34-5.1-8.46-4.28-5.18,1.03-7.77,6.07-6.82,10.84,0,.03,.01,.05,.02,.08,.18,1.04,2.29,11.59,19.94,17.03h0s0,0,0,0c0,0,0,0,0,0,0,0,0,0,0,0,0,0,0,0,0,0h0c14.24-11.76,12.18-22.32,11.95-23.35Z"/>
    </g>
  </g>
  <g>
    <circle class="cls-5" cx="1623.07" cy="682.3" r="18.83"/>
    <g class="cls-7">
      <path class="cls-1" d="M1606.9,683.55c-1.93-9.68,7.83-19.46,17.52-17.52-2.29,.46-4.42,1.14-6.38,2.12-6.03,2.98-9.96,8.8-11.15,15.4h0Z"/>
    </g>
    <g>
      <path class="cls-1" d="M1631.96,678.67h-2.68s-1.09,0-1.09,0h-2.07c-.15,0-.26-.14-.22-.28,.24-.84,.26-1.75,.26-2.62,0-.48,.02-1.02-.03-1.54-.05-.53-.18-1.04-.5-1.44-.35-.45-.86-.78-1.44-.78-1.33,0-1.54,1.3-1.67,2.36-.14,1.23-.2,2.51-.75,3.65-.38,.8-.92,1.48-1.77,1.81-.65,.26-1.13,.46-1.82,.59-.11,.02-.18,.11-.18,.22v8.62c0,.13,.1,.23,.23,.23h2.38c.07,0,.14,.04,.18,.09,.47,.63,1.22,1.04,2.07,1.04h3.71s2.69,0,2.69,0h1.07c1.09,0,1.98-.89,1.98-1.98h0c0-.28-.07-.55-.19-.79-.05-.09-.02-.21,.06-.27,.4-.32,.67-1.06,.67-1.61v-.23c0-.28-.07-.55-.19-.79-.05-.09-.02-.21,.06-.27,.4-.32,.67-.82,.67-1.37v-.23c0-.28-.07-.55-.19-.79-.05-.09-.02-.21,.06-.27,.4-.32,.67-.82,.67-1.37h0c0-1.09-.89-1.98-1.98-1.98Z"/>
      <rect class="cls-1" x="1612.2" y="679.45" width="4.6" height="10.92" rx=".51" ry=".51"/>
    </g>
  </g>
  <g>
    <circle class="cls-5" cx="1644" cy="895.77" r="77.94"/>
    <g class="cls-7">
      <path class="cls-1" d="M1577.06,900.97c-8-40.08,32.42-80.56,72.52-72.52-9.48,1.9-18.29,4.72-26.39,8.79-24.94,12.33-41.21,36.42-46.13,63.73h0Z"/>
    </g>
    <g>
      <path class="cls-1" d="M1680.79,880.77h-11.08s-4.49,0-4.49,0h-8.56c-.61,0-1.08-.58-.91-1.17,.98-3.48,1.07-7.26,1.07-10.83,0-1.97,.09-4.21-.12-6.37-.22-2.19-.76-4.31-2.06-5.98-1.43-1.85-3.57-3.23-5.95-3.23-5.51,0-6.38,5.4-6.9,9.77-.6,5.1-.84,10.38-3.09,15.09-1.58,3.29-3.82,6.12-7.33,7.51-2.7,1.07-4.69,1.9-7.54,2.45-.44,.09-.76,.47-.76,.92v35.68c0,.52,.42,.94,.94,.94h9.87c.3,0,.58,.15,.75,.39,1.95,2.61,5.06,4.3,8.57,4.3h15.35s11.15,0,11.15,0h4.42c4.51,0,8.21-3.69,8.21-8.21h0c0-1.17-.28-2.27-.78-3.25-.2-.39-.1-.86,.24-1.13,1.67-1.33,2.75-4.38,2.75-6.67v-.94c0-1.17-.28-2.27-.78-3.25-.2-.39-.1-.86,.24-1.13,1.67-1.33,2.75-3.38,2.75-5.68v-.94c0-1.17-.28-2.27-.78-3.25-.2-.39-.1-.86,.24-1.13,1.67-1.33,2.75-3.38,2.75-5.68h0c0-4.51-3.69-8.21-8.21-8.21Z"/>
      <rect class="cls-1" x="1599.01" y="884" width="19.04" height="45.21" rx="1.04" ry="1.04"/>
    </g>
  </g>
  <g>
    <circle class="cls-2" cx="1830.5" cy="865.66" r="69.58"/>
    <g>
      <path class="cls-4" d="M1799.46,833.89c.62-4.44,6.78-5.38,8.69-1.32,.01,.03,.03,.06,.04,.08,1.26,2.8,2.09,5.66,2.54,8.58,.45,2.92,.52,5.9,.15,8.95,0,.05-.01,.09-.02,.14-.62,4.44-6.78,5.38-8.7,1.33-.02-.04-.04-.08-.06-.13-1.26-2.8-2.09-5.66-2.53-8.59-.44-2.92-.5-5.9-.13-8.95,0-.03,0-.06,.01-.09Z"/>
      <path class="cls-4" d="M1841.95,827.41c.62-4.44,6.78-5.38,8.69-1.32,.01,.03,.03,.06,.04,.08,1.26,2.8,2.09,5.66,2.54,8.58,.45,2.92,.52,5.9,.15,8.95,0,.05-.01,.09-.02,.14-.62,4.44-6.78,5.38-8.7,1.33-.02-.04-.04-.08-.06-.13-1.26-2.8-2.09-5.66-2.53-8.59-.44-2.92-.5-5.9-.13-8.95,0-.03,0-.06,.01-.09Z"/>
    </g>
    <g class="cls-7">
      <path class="cls-1" d="M1772.46,879.84c-12.45-34.3,17.78-75.46,54.25-73.76-8.11,2.96-15.51,6.62-22.11,11.31-20.35,14.24-31.48,37.69-32.14,62.45h0Z"/>
    </g>
    <g>
      <path class="cls-6" d="M1845.6,885.73c.34,2.24,.5,4.45,.45,6.54-.12,9.14-3.6,16.31-8.9,17.12s-10.75-5-13.57-13.69c-.67-1.98-1.18-4.13-1.52-6.37-1.84-12.08,1.93-22.66,8.43-23.65,6.5-.99,13.27,7.98,15.11,20.06Z"/>
      <path class="cls-3" d="M1846.05,892.26c-.12,9.14-3.6,16.31-8.9,17.12s-10.75-5-13.57-13.69c3.25-1.49,6.97-2.6,10.98-3.21,4.03-.61,7.93-.66,11.5-.21Z"/>
    </g>
  </g>
  <g>
    <circle class="cls-2" cx="1849.62" cy="462.5" r="43.85"/>
    <g>
      <path class="cls-4" d="M1830.06,442.47c.39-2.8,4.27-3.39,5.48-.83,0,.02,.02,.04,.02,.05,.8,1.76,1.32,3.57,1.6,5.41,.29,1.84,.33,3.72,.09,5.64,0,.03,0,.06-.01,.09-.39,2.8-4.27,3.39-5.48,.84-.01-.03-.02-.05-.04-.08-.8-1.76-1.32-3.57-1.59-5.41-.28-1.84-.32-3.72-.08-5.64,0-.02,0-.04,0-.06Z"/>
      <path class="cls-4" d="M1856.84,438.39c.39-2.8,4.27-3.39,5.48-.83,0,.02,.02,.04,.02,.05,.8,1.76,1.32,3.57,1.6,5.41,.29,1.84,.33,3.72,.09,5.64,0,.03,0,.06-.01,.09-.39,2.8-4.27,3.39-5.48,.84-.01-.03-.02-.05-.04-.08-.8-1.76-1.32-3.57-1.59-5.41-.28-1.84-.32-3.72-.08-5.64,0-.02,0-.04,0-.06Z"/>
    </g>
    <g class="cls-7">
      <path class="cls-1" d="M1813.04,471.43c-7.85-21.62,11.2-47.56,34.19-46.48-5.11,1.86-9.78,4.17-13.93,7.13-12.83,8.97-19.84,23.75-20.26,39.36h0Z"/>
    </g>
    <g>
      <path class="cls-6" d="M1859.14,475.14c.22,1.41,.31,2.8,.28,4.12-.08,5.76-2.27,10.28-5.61,10.79-3.34,.51-6.78-3.15-8.55-8.63-.42-1.25-.74-2.61-.96-4.02-1.16-7.61,1.21-14.28,5.31-14.91,4.1-.62,8.36,5.03,9.52,12.64Z"/>
      <path class="cls-3" d="M1859.43,479.26c-.08,5.76-2.27,10.28-5.61,10.79-3.34,.51-6.78-3.15-8.55-8.63,2.05-.94,4.39-1.64,6.92-2.02,2.54-.39,5-.42,7.24-.13Z"/>
    </g>
  </g>
  <path class="cls-2" d="M1791.23,550.83c4.94-.33,9.77-1.39,13.94-3.2-4.17-1.82-9-2.88-13.94-3.2-.33-4.94-1.39-9.77-3.2-13.94-1.81,4.17-2.88,9-3.2,13.94-4.94,.32-9.77,1.38-13.94,3.21,4.17,1.83,9,2.89,13.94,3.21,.32,4.94,1.38,9.77,3.21,13.94,1.83-4.17,2.89-9,3.21-13.94Z"/>
  <g>
    <g>
      <circle class="cls-2" cx="284.53" cy="1183.53" r="55.95"/>
      <g>
        <path class="cls-6" d="M319.3,1191.17c1.06,.28,1.72,1.4,1.38,2.45-3.7,11.51-12.6,20.13-23.35,23.93-6.86,2.38-14.49,2.85-22.02,.87-7.52-1.98-13.93-6.15-18.69-11.63-7.52-8.59-10.99-20.44-8.52-32.3,.22-1.08,1.35-1.73,2.41-1.45l68.78,18.13Z"/>
        <g>
          <path class="cls-4" d="M271.79,1150.16c1.88-3.08,6.72-1.8,6.84,1.8,0,.02,0,.05,0,.07,.04,2.47-.27,4.85-.87,7.15-.6,2.3-1.51,4.52-2.76,6.65-.02,.03-.04,.06-.06,.1-1.88,3.08-6.73,1.8-6.84-1.8,0-.04,0-.07,0-.11-.04-2.47,.27-4.85,.88-7.14,.61-2.3,1.52-4.52,2.77-6.65,.01-.02,.03-.04,.04-.06Z"/>
          <path class="cls-4" d="M305.21,1158.97c1.88-3.08,6.72-1.8,6.84,1.8,0,.02,0,.05,0,.07,.04,2.47-.27,4.85-.87,7.15-.6,2.3-1.51,4.52-2.76,6.65-.02,.03-.04,.06-.06,.1-1.88,3.08-6.73,1.8-6.84-1.8,0-.04,0-.07,0-.11-.04-2.47,.27-4.85,.88-7.14,.61-2.3,1.52-4.52,2.77-6.65,.01-.02,.03-.04,.04-.06Z"/>
        </g>
        <path class="cls-3" d="M297.33,1217.55s0,0,0,0c-6.86,2.38-14.49,2.85-22.02,.87-7.52-1.98-13.93-6.15-18.69-11.63,4.25-6.22,13.76-9.11,23.48-6.55,9.75,2.57,16.6,9.77,17.22,17.31Z"/>
      </g>
    </g>
    <g class="cls-7">
      <path class="cls-1" d="M237.17,1175.43c1.78-29.29,37.25-49.99,63.61-37.07-6.93-.41-13.56-.07-19.93,1.27-19.57,3.99-35.28,17.74-43.69,35.8h0Z"/>
    </g>
  </g>
  <path class="cls-2" d="M1733.62,777.86c4.94-.33,9.77-1.39,13.94-3.2-4.17-1.82-9-2.88-13.94-3.2-.33-4.94-1.39-9.77-3.2-13.94-1.81,4.17-2.88,9-3.2,13.94-4.94,.32-9.77,1.38-13.94,3.21,4.17,1.83,9,2.89,13.94,3.21,.32,4.94,1.38,9.77,3.21,13.94,1.83-4.17,2.89-9,3.21-13.94Z"/>
  <path class="cls-2" d="M1637.15,396.61c4.94-.33,9.77-1.39,13.94-3.2-4.17-1.82-9-2.88-13.94-3.2-.33-4.94-1.39-9.77-3.2-13.94-1.81,4.17-2.88,9-3.2,13.94-4.94,.32-9.77,1.38-13.94,3.21,4.17,1.83,9,2.89,13.94,3.21,.32,4.94,1.38,9.77,3.21,13.94,1.83-4.17,2.89-9,3.21-13.94Z"/>
  <circle class="cls-3" cx="1660.94" cy="565.74" r="14.48"/>
  <circle class="cls-3" cx="1666.48" cy="722.03" r="14.48"/>
  <g>
    <circle class="cls-5" cx="1383.09" cy="689.6" r="25.33"/>
    <g class="cls-7">
      <path class="cls-1" d="M1361.33,691.29c-2.6-13.03,10.53-26.18,23.56-23.57-3.08,.62-5.94,1.53-8.57,2.86-8.11,4.01-13.39,11.83-14.99,20.71h0Z"/>
    </g>
    <g>
      <path class="cls-1" d="M1395.04,684.72h-3.6s-1.46,0-1.46,0h-2.78c-.2,0-.35-.19-.3-.38,.32-1.13,.35-2.36,.35-3.52,0-.64,.03-1.37-.04-2.07-.07-.71-.25-1.4-.67-1.94-.47-.6-1.16-1.05-1.93-1.05-1.79,0-2.07,1.76-2.24,3.18-.19,1.66-.27,3.37-1.01,4.9-.51,1.07-1.24,1.99-2.38,2.44-.88,.35-1.52,.62-2.45,.8-.14,.03-.25,.15-.25,.3v11.59c0,.17,.14,.31,.31,.31h3.21c.1,0,.19,.05,.25,.13,.63,.85,1.64,1.4,2.78,1.4h4.99s3.62,0,3.62,0h1.44c1.47,0,2.67-1.2,2.67-2.67h0c0-.38-.09-.74-.25-1.06-.06-.13-.03-.28,.08-.37,.54-.43,.9-1.42,.89-2.17v-.31c0-.38-.09-.74-.25-1.06-.06-.13-.03-.28,.08-.37,.54-.43,.9-1.1,.9-1.84v-.31c0-.38-.09-.74-.25-1.06-.06-.13-.03-.28,.08-.37,.54-.43,.9-1.1,.9-1.84h0c0-1.47-1.2-2.67-2.67-2.67Z"/>
      <rect class="cls-1" x="1368.47" y="685.77" width="6.19" height="14.69" rx=".69" ry=".69"/>
    </g>
  </g>
</svg>